<svg xmlns="http://www.w3.org/2000/svg" width="1650.932" height="788.748" viewBox="0 0 1650.932 788.748"><defs><style>.a{opacity:0.68;}.b{fill:#fff;}</style></defs><g class="a" transform="translate(787.674 1048.188)"><g transform="translate(-787.674 -1048.188)"><path class="b" d="M861.651-624.55,798.8-636.2a1.968,1.968,0,0,0-2.29,1.575,1.964,1.964,0,0,0,1.573,2.288l44.081,8.168L784.113-622.9v-52.1a1.963,1.963,0,0,0-1.964-1.964,1.963,1.963,0,0,0-1.964,1.964v52.181L723.6-621.575v-53.418a1.963,1.963,0,0,0-1.964-1.964,1.965,1.965,0,0,0-1.964,1.964v53.5L656.1-620.1v-54.893a1.964,1.964,0,0,0-1.964-1.964,1.965,1.965,0,0,0-1.964,1.964v54.977l-61.254,1.339v-56.317a1.963,1.963,0,0,0-1.964-1.964,1.963,1.963,0,0,0-1.964,1.964v56.4l-67.071,1.465v-57.868a1.963,1.963,0,0,0-1.964-1.964,1.965,1.965,0,0,0-1.964,1.964v57.953l-68.228,1.493v-59.445a1.963,1.963,0,0,0-1.964-1.964,1.963,1.963,0,0,0-1.964,1.964v59.53l-72.881,1.593v-61.122a1.963,1.963,0,0,0-1.964-1.964,1.963,1.963,0,0,0-1.964,1.964v61.209l-19.561.426-25.4-9.032V-675a1.963,1.963,0,0,0-1.964-1.964A1.965,1.965,0,0,0,318.136-675v51.213L287.166-634.8V-675a1.965,1.965,0,0,0-1.964-1.964A1.963,1.963,0,0,0,283.239-675v38.8L158.886-680.417H853.73a.983.983,0,0,0,.982-.949.982.982,0,0,0-.913-1.013l-160.709-11.2-91.207-1.006q33.555-23.323,66.738-47.167c11.45-8.306,22.884-16.635,34-25.408a2.4,2.4,0,0,0,.927-1.235,2.2,2.2,0,0,0-.147-1.585,2.125,2.125,0,0,0-1.188-1.065,8.261,8.261,0,0,0-1.385-.24l-5.265-.7-10.545-1.212c-7.037-.733-14.074-1.459-21.119-2.086q-42.269-3.789-84.663-5.9c-7.06-.406-14.127-.723-21.2-.994l-21.2-.872c-14.141-.359-28.277-.909-42.422-1.11q-84.861-1.429-169.695,2.41c-28.263,1.241-56.494,3.135-84.694,5.348l-21.136,1.858-10.568.929-5.283.465c-.915.108-1.685.088-2.718.3a1.5,1.5,0,0,0-.962,1.3,1.445,1.445,0,0,0,.8,1.383,166.978,166.978,0,0,1,17.648,11.669c5.542,4.311,11,8.97,14.879,14.838a.3.3,0,0,0,.4.089.3.3,0,0,0,.094-.407c-3.743-6.13-9.1-11.035-14.547-15.6a162.912,162.912,0,0,0-16.185-11.44l.788-.047,5.293-.32,10.584-.64,21.158-1.28c28.207-1.683,56.419-3.129,84.653-3.875,14.111-.54,28.234-.642,42.343-1.084,5.743-.188,17.587-.4,17.587-.4s16.389-.178,24.76-.261c14.115-.23,28.232-.063,42.349,0,14.115-.02,28.228.422,42.341.654,56.458.617,112.893,3.4,169.172,7.559,7.035.5,14.06,1.11,21.079,1.719l10.5,1.023,2.1.24c-9.908,7.991-20.148,15.725-30.363,23.45q-16.83,12.889-33.843,25.569l-17.016,12.673-15.2,11.436-739.756-8.17a.926.926,0,0,0-.994.97.985.985,0,0,0,.972.994l832.054,9.19,132.5,9.233H153.363l-2.443-.87a1.965,1.965,0,0,0-2.51,1.194,1.964,1.964,0,0,0,1.194,2.508l268.787,95.584a1.983,1.983,0,0,0,.511.108L587.371-571.2l139.939,41.856L578.751-517.537,442.811-565.78a1.884,1.884,0,0,0-.489-.106l-54.062-4.586L57.6-683.259a1.932,1.932,0,0,0-2.29.878H-649.314l-137.342-5.224a.98.98,0,0,0-1.017.943.982.982,0,0,0,.943,1.019l137.379,5.226H55.295a1.942,1.942,0,0,0,1.041.876l46.491,15.857V-608l-90.339,1.976v-68.971a1.963,1.963,0,0,0-1.964-1.964,1.965,1.965,0,0,0-1.964,1.964v69.055l-101.969,2.229v-71.284a1.963,1.963,0,0,0-1.964-1.964,1.965,1.965,0,0,0-1.964,1.964v71.371l-104.029,2.274v-73.645a1.965,1.965,0,0,0-1.964-1.964,1.963,1.963,0,0,0-1.964,1.964v73.729L-313.374-598.9v-76.092a1.963,1.963,0,0,0-1.964-1.964,1.965,1.965,0,0,0-1.964,1.964v76.178l-117.109,2.559v-78.737a1.965,1.965,0,0,0-1.964-1.964,1.963,1.963,0,0,0-1.964,1.964v78.824L-563.6-593.431v-81.562a1.965,1.965,0,0,0-1.964-1.964,1.963,1.963,0,0,0-1.964,1.964v81.646l-8.443.185-117.435-10.456a1.949,1.949,0,0,0-2.129,1.781,1.964,1.964,0,0,0,1.781,2.131l117.543,10.466c.059.006.116.008.175.008h.043l139.558-3.05c.02,0,.039.012.061.012s.047-.014.075-.016l120.929-2.643a.2.2,0,0,0,.033.008c.016,0,.027-.008.043-.008l111.96-2.447h0l0,0,107.94-2.359.014,0,.02,0L10.52-602.051h0l.006,0,256.313-5.6c.053,0,.1-.027.147-.033l120.228,41.01a2,2,0,0,0,.467.1l54.05,4.586,136.1,48.3a1.958,1.958,0,0,0,.656.112c.051,0,.1,0,.155,0l159.439-12.673a1.962,1.962,0,0,0,1.8-1.75,1.963,1.963,0,0,0-1.391-2.09l-150.2-44.926a2.138,2.138,0,0,0-.414-.077L419.459-587.755l-61.586-21.9,11.069-.242c.016,0,.029.01.047.01s.037-.012.059-.012l76.665-1.675c.029,0,.055.018.084.018s.069-.02.106-.021l72.03-1.575.02.006.027-.006,70.952-1.549.02,0,.024-.006,65.094-1.422c.022,0,.041.014.065.014s.053-.016.082-.018l127.919-2.795.012,0,.016,0,79.169-1.73a1.966,1.966,0,0,0,1.917-1.8A1.966,1.966,0,0,0,861.651-624.55ZM201.125-771.858c-.049-.035-.039-.029,0,0Zm499.205,1.581-.025.022.027-.03C700.393-770.329,700.4-770.331,700.33-770.276ZM106.754-608.082v-54.26l149.5,50.992Z" transform="translate(787.675 1302.332)"/><path class="b" d="M-667.992-432.3a255.261,255.261,0,0,1,20.635-21.009q10.867-9.957,22.589-18.921a315.651,315.651,0,0,1,49.8-31.361A264.061,264.061,0,0,1-519.917-524.2a233.358,233.358,0,0,1,58.3-6.992,233.548,233.548,0,0,1,58.183,7.872,274.687,274.687,0,0,1,54.82,21.244c28.026,14.5,53.777,33.052,77.418,53.95l-.008.428a2.946,2.946,0,0,0,2.893,3l.055,0a2.882,2.882,0,0,0,.762-.114q6.811,6.148,13.392,12.53a.3.3,0,0,0,.409,0,.3.3,0,0,0,.01-.416l-.006-.008-10.215-10.7-2.261-2.174a2.928,2.928,0,0,0,.852-2.013l10.291-564.444a2.944,2.944,0,0,0-2.561-2.974l-66.343-8.72c-.031,0-.061.006-.09,0-.067-.006-.132-.023-.2-.026a2.787,2.787,0,0,0-1.791.528l-50.871,31.188,1.406-39.134a2.95,2.95,0,0,0-2.418-3l-76.811-13.983a2.653,2.653,0,0,0-.281-.022c-.061-.006-.118-.014-.179-.014a2.921,2.921,0,0,0-.768.078c-.051.014-.1.036-.151.049a3,3,0,0,0-.6.26c-.055.031-.11.057-.165.092a2.991,2.991,0,0,0-.575.5c-.02.022-.045.035-.065.057l-73.335,87.3a2.949,2.949,0,0,0-.689,1.826l-10.213,434.253a3.105,3.105,0,0,0,.037.489c-2.732.968-5.454,1.966-8.152,3.021-4.655,1.84-9.27,3.771-13.811,5.86q-6.778,3.2-13.39,6.715A316.756,316.756,0,0,0-626.666-474.7q-11.463,9.492-22.012,19.956a216.378,216.378,0,0,0-19.767,22.071.3.3,0,0,0,.039.406A.293.293,0,0,0-667.992-432.3Zm396.833-18.073-3.419-3.29c-3.671-3.3-7.292-6.666-11.016-9.922-3.79-3.172-7.483-6.481-11.369-9.553a362.781,362.781,0,0,0-41.012-28.128,3.1,3.1,0,0,0,.09-.623l16.413-515.571,60.508,7.952Zm-105.72-534.747,49.449-30.316-16.264,510.893c-.945-.53-1.881-1.072-2.83-1.593a263.106,263.106,0,0,0-47.094-20.028L-377.134-985C-377.05-985.038-376.962-985.068-376.879-985.119Zm-22.572,457.2c-.856-.247-1.707-.515-2.565-.754a236.263,236.263,0,0,0-59.561-8.406c-.373,0-.746.014-1.119.014l10.34-504.675,70.9,12.907ZM-525.644-956.853l67.3-80.11-10.244,499.973a237,237,0,0,0-52.676,7.408q-7.329,1.924-14.527,4.281Z" transform="translate(902.548 1048.189)"/></g></g></svg>