<svg id="Camada_1" data-name="Camada 1" xmlns="http://www.w3.org/2000/svg" xmlns:xlink="http://www.w3.org/1999/xlink" viewBox="0 0 500 500"><defs><style>.cls-1,.cls-12,.cls-6,.cls-8{fill:none;}.cls-18,.cls-2{fill:#407bff;}.cls-10,.cls-3,.cls-4,.cls-5{fill:#fff;}.cls-14,.cls-16,.cls-3,.cls-4{isolation:isolate;}.cls-3{opacity:0.6;}.cls-4{opacity:0.4;}.cls-6{stroke:#ccc;stroke-width:1.25px;}.cls-10,.cls-12,.cls-18,.cls-23,.cls-6,.cls-7,.cls-8{stroke-linecap:round;stroke-linejoin:round;}.cls-17,.cls-7{fill:#263238;}.cls-10,.cls-12,.cls-18,.cls-7{stroke:#263238;}.cls-8{stroke:#fff;}.cls-9{fill:#52a08c;}.cls-11{fill:#53b252;}.cls-13{clip-path:url(#clip-path);}.cls-14{opacity:0.38;}.cls-15{clip-path:url(#clip-path-2);}.cls-16{opacity:0.15;}.cls-19{clip-path:url(#clip-path-3);}.cls-20{clip-path:url(#clip-path-4);}.cls-21{fill:#283c76;}.cls-22{clip-path:url(#clip-path-5);}.cls-23{fill:#d36e00;stroke:#a35202;}</style><clipPath id="clip-path"><path class="cls-1" d="M168.05,331.43s8,17.76,9.91,21.34,4.13,13.77,4.4,19.82,0,7.3-1.37,7.16-1.93-7.71-1.93-8.95v-1.92s-.69,7.15-1.79,8.53-2.62,2.89-2.75,2.07.27-2.21.82-4.27a16.25,16.25,0,0,0,.28-4.82s-.83,3.85-2.75,5.23-4,1.93-3.31.83,2.48-2.34,2.89-3.72a17.81,17.81,0,0,0,.42-3.85s-2.62,4.26-3.72,4.95-1.1-.82-.41-1.51,2.2-5.37,2.2-5.37-.42-.28-2.34-4.54-3-11.71-3.58-14.6-1.65-6.74-1.65-6.74l-10.6-17.76s-.83-4.27,3.16-5S168.05,331.43,168.05,331.43Z"/></clipPath><clipPath id="clip-path-2"><path class="cls-1" d="M178,358s1.38,6.75,1.24,9.77.55,4.55-.42,4.55-1.23-.69-2.2-3.72a35.73,35.73,0,0,1-1.24-6.88s-3.44,0-4.68-5.1"/></clipPath><clipPath id="clip-path-3"><path class="cls-1" d="M239,333.22c-1.09,0-7.89,0-12-1.09s-23.49-6.51-34.64-10.59-24.15-8.46-24.15-8.46a39.36,39.36,0,0,1-4.63-6.53c-1.23-2-4.45-8.53-7.82-15.48-10.85,2.84-16.31,8-19,12a260.42,260.42,0,0,0,18.39,23.36c3.81,4.35,13.33,5.44,21.77,6.53S221,336.5,221,336.5a44.51,44.51,0,0,0,9.8,4.35c4.35,1.09,6.8,1.36,9.79.27s9.26-1.63,11.16-2.17,3-1.64,2.18-2.18S240.13,333.22,239,333.22Z"/></clipPath><clipPath id="clip-path-4"><path class="cls-1" d="M171.3,191.36a20.61,20.61,0,0,1,11.12,7.42,19,19,0,0,1,3.73,8.26c1.33,8.1-3.23,10.6-1.76,14.28s2.94,5.59,1.76,7.36-4.85,2.06-5.44,2.21-1.77,6.91-4.12,9.86-10.6-.44-10.6-.44-3.38,5.74-4.41,7.65,1,13.39-.45,18.54-4.85-.44-11.33-8.53-9.42-14.72-9.12-16.93,5.44-7.36,6.33-9.27,1.32-2.8.88-4.56-5.59-9-5.59-18.25,7.35-18.1,17.07-18.84A35.85,35.85,0,0,1,171.3,191.36Z"/></clipPath><clipPath id="clip-path-5"><path class="cls-1" d="M335.14,315.93c.26.78-.52,11.75-1.05,30.82-.4,14.63-3.87,40.63-5.47,51.93h55.59c.4-11.46.9-37.67-2.32-48.54-4.18-14.1-8.88-17-10.44-23.24s-3.92-40.75-7.84-53.81-15.67-20.9-17.5-23.77-7.58-19.59-7.58-19.59l-9.92,8.36s7.31,11.75,8.36,15.41-7.06,12.27-11.23,21.16-5,15.93-1.31,21.41S334.88,315.14,335.14,315.93Z"/></clipPath></defs><g id="freepik--background-simple--inject-14"><path class="cls-2" d="M434.75,398.49H74.07s-14.34,4.68-22.25-32.56,32.8-47.22,42.48-79.38-32.55-25.39-29-69.4,61.58-44.86,89.73-38.93,24.63-14.39,57.18-48.25S294,99.51,318.62,125.74s16.72,53.32,47.51,53.32,58.94,5.93,77.41,62.63-15.29,82.62-14.68,108.18A276.13,276.13,0,0,0,434.75,398.49Z"/><path class="cls-3" d="M434.75,398.49H74.07s-14.34,4.68-22.25-32.56,32.8-47.22,42.48-79.38-32.55-25.39-29-69.4,61.58-44.86,89.73-38.93,24.63-14.39,57.18-48.25S294,99.51,318.62,125.74s16.72,53.32,47.51,53.32,58.94,5.93,77.41,62.63-15.29,82.62-14.68,108.18A276.13,276.13,0,0,0,434.75,398.49Z"/></g><g id="freepik--Pictures--inject-14"><rect class="cls-2" x="209.33" y="124.7" width="68" height="98"/><rect class="cls-4" x="209.33" y="124.7" width="68" height="98"/><rect class="cls-5" x="219.05" y="138.7" width="48.57" height="70"/><rect class="cls-2" x="108" y="183.37" width="47.18" height="68"/><rect class="cls-4" x="108" y="183.37" width="47.18" height="68"/><rect class="cls-5" x="114.74" y="193.08" width="33.7" height="48.57"/><rect class="cls-2" x="337" y="183.37" width="47.18" height="68"/><rect class="cls-4" x="337" y="183.37" width="47.18" height="68"/><rect class="cls-5" x="343.74" y="193.08" width="33.7" height="48.57"/></g><g id="freepik--Plants--inject-14"><path class="cls-5" d="M331.63,319.41c-2,5-4.12,1-3.79-20.06.16-9.86.85-30,11.76-25.57,10.47,4.26-3.33,34.05-3.33,34.05Zm15,3s22.73-23.69,14.2-31.12c-8.87-7.74-16.07,11.09-19.42,20.37-7.14,19.79-6.48,24.28-2.93,20.19Zm4.79,21.26s20.81-14.82,15.37-21.74c-5.66-7.2-13.89,6.16-17.8,12.76-8.33,14.1-8.47,17.63-5.17,15Zm5.63,21.2s20.82-14.82,15.38-21.74c-5.67-7.2-13.9,6.15-17.8,12.76-8.33,14.09-8.48,17.63-5.17,15Zm-36.34-42.62s-29.13-15.16-33.86-4.89c-4.93,10.69,15.16,12.31,25,12.91,21,1.3,25.13-.6,20.21-2.86Zm4.1,16.68s-31.56-9.06-34.16,1.95c-2.7,11.45,17.31,9,27.08,7.68,20.84-2.9,24.5-5.58,19.23-6.82Zm7.22,18.2s-26.89-6.94-28.84,2.43c-2,9.75,14.85,7.25,23.08,5.87,17.55-2.94,20.59-5.29,16.11-6.21Zm4.21,15s-26-9.76-28.93-.65c-3.05,9.49,14,8.79,22.32,8.29,17.77-1.06,21-3.07,16.67-4.47ZM318.81,296s-11.87-36.9-25.35-30.19c-14,7,2.18,23.61,10.29,31.58,17.29,17,22.64,18.18,20.37,12.25Z"/><path class="cls-6" d="M299.1,279s29.82,36.38,36.95,54.59c8.2,20.93,13.78,44.5,14.89,64"/><line class="cls-6" x1="330.11" y1="321.7" x2="334.26" y2="287.01"/><line class="cls-6" x1="336.05" y1="333.58" x2="351.05" y2="304.42"/><line class="cls-6" x1="333.86" y1="329.26" x2="302.44" y2="322.86"/><line class="cls-6" x1="341.95" y1="350.13" x2="360.42" y2="329.09"/><line class="cls-6" x1="339.37" y1="343.2" x2="315.66" y2="342.99"/><line class="cls-6" x1="343.94" y1="360.42" x2="325.75" y2="361.13"/><line class="cls-6" x1="347.67" y1="371.4" x2="357.41" y2="358.42"/><line class="cls-6" x1="348.39" y1="376.23" x2="327.11" y2="375.17"/><path class="cls-5" d="M407.65,348.14c-3.67,1.38-2.55-1.71,8.8-11.87,5.32-4.77,16.38-14.3,19.38-6.32,2.89,7.67-19.74,15-19.74,15Zm5.77,9.43s23.78.45,23.54-7.74c-.25-8.52-13.8-3.1-20.38-.32-14,5.93-16.11,8.49-12.19,8.37Zm-8.95,13s18.11,3.79,19.12-2.51c1-6.55-10.11-4.36-15.54-3.19-11.59,2.49-13.54,4.15-10.53,4.63ZM396,384s18.12,3.79,19.12-2.51c1.05-6.55-10.1-4.37-15.54-3.2C388,380.78,386,382.44,389,382.92Zm4.81-40.28s-6.26-23-14-20.42c-8.11,2.63.91,14.12,5.43,19.65,9.63,11.81,12.67,13.07,11.45,9.34ZM394,354.1s-10.69-21.24-17.82-17.22c-7.43,4.2,3.69,13.66,9.21,18.18,11.79,9.66,15,10.29,13.09,6.88Zm-6.13,12.78s-9.53-17.71-15.47-14.14c-6.18,3.72,3.44,11.46,8.22,15.16,10.19,7.89,12.93,8.35,11.22,5.51Zm-5.92,9.63S374.3,357.88,368,360.8c-6.54,3,2.2,11.76,6.56,15.95,9.3,8.93,12,9.68,10.58,6.67Zm31.91-46.67s13.79-24.45,3.6-28.32c-10.6-4-11.49,12.77-11.74,21-.54,17.56,1.46,21,3.5,16.86Z"/><path class="cls-6" d="M413.15,311s-4.69,33.74-10.87,46.49c-7.1,14.64-17.82,30.23-27.66,40.41"/><line class="cls-6" x1="405.68" y1="348.46" x2="426.17" y2="333.62"/><line class="cls-6" x1="402.28" y1="357.46" x2="425.16" y2="351.1"/><line class="cls-6" x1="403.5" y1="354.17" x2="391.46" y2="334.31"/><line class="cls-6" x1="396.38" y1="368.73" x2="416.65" y2="368.21"/><line class="cls-6" x1="398.8" y1="363.95" x2="387.25" y2="351.23"/><line class="cls-6" x1="391.88" y1="374.84" x2="382.56" y2="365.52"/><line class="cls-6" x1="387.87" y1="382.23" x2="399.57" y2="381.03"/><line class="cls-6" x1="385.65" y1="384.98" x2="375.76" y2="373.15"/><path class="cls-5" d="M101.21,319.41c-2,5-4.12,1-3.79-20.06.16-9.86.85-30,11.76-25.57,10.48,4.26-3.33,34.05-3.33,34.05Zm15,3s22.73-23.69,14.21-31.12c-8.88-7.74-16.08,11.09-19.43,20.37-7.14,19.79-6.48,24.28-2.93,20.19ZM121,343.65s20.82-14.82,15.37-21.74c-5.66-7.2-13.89,6.16-17.8,12.76-8.33,14.1-8.47,17.63-5.16,15Zm5.64,21.2S147.43,350,142,343.11c-5.67-7.2-13.9,6.15-17.8,12.76-8.33,14.09-8.48,17.63-5.17,15ZM90.27,322.23s-29.12-15.16-33.86-4.89c-4.93,10.69,15.16,12.31,25,12.91,21,1.3,25.12-.6,20.2-2.86Zm4.1,16.68s-31.55-9.06-34.16,1.95c-2.7,11.45,17.31,9,27.08,7.68,20.84-2.9,24.51-5.58,19.24-6.82Zm7.22,18.2s-26.89-6.94-28.84,2.43c-2,9.75,14.85,7.25,23.08,5.87,17.55-2.94,20.59-5.29,16.11-6.21Zm4.21,15s-26-9.76-28.93-.65c-3.05,9.49,14,8.79,22.32,8.29,17.77-1.06,21-3.07,16.68-4.47ZM88.39,296S76.52,259.14,63,265.85c-14,7,2.18,23.61,10.29,31.58,17.3,17,22.65,18.18,20.37,12.25Z"/><path class="cls-6" d="M68.68,279s29.82,36.38,36.95,54.59c8.2,20.93,13.78,44.5,14.89,64"/><line class="cls-6" x1="99.7" y1="321.7" x2="103.84" y2="287.01"/><line class="cls-6" x1="105.63" y1="333.58" x2="120.63" y2="304.42"/><line class="cls-6" x1="103.44" y1="329.26" x2="72.03" y2="322.86"/><line class="cls-6" x1="111.53" y1="350.13" x2="130" y2="329.09"/><line class="cls-6" x1="108.95" y1="343.2" x2="85.24" y2="342.99"/><line class="cls-6" x1="113.52" y1="360.42" x2="95.33" y2="361.13"/><line class="cls-6" x1="117.26" y1="371.4" x2="127" y2="358.42"/><line class="cls-6" x1="117.97" y1="376.23" x2="96.69" y2="375.17"/><path class="cls-5" d="M177.23,348.14c-3.67,1.38-2.55-1.71,8.8-11.87,5.33-4.77,16.38-14.3,19.38-6.32,2.89,7.67-19.74,15-19.74,15Zm5.77,9.43s23.78.45,23.54-7.74c-.25-8.52-13.8-3.1-20.38-.32-14,5.93-16.11,8.49-12.19,8.37Zm-8.95,13s18.11,3.79,19.12-2.51c1-6.55-10.11-4.36-15.54-3.19C166,367.36,164.09,369,167.1,369.5ZM165.54,384s18.12,3.79,19.12-2.51c1.05-6.55-10.1-4.37-15.53-3.2-11.6,2.5-13.55,4.16-10.53,4.64Zm4.81-40.28s-6.25-23-14-20.42c-8.11,2.63.9,14.12,5.42,19.65,9.63,11.81,12.67,13.07,11.45,9.34Zm-6.86,10.38s-10.69-21.24-17.82-17.22c-7.43,4.2,3.69,13.66,9.22,18.18,11.79,9.66,15,10.29,13.08,6.88Zm-6.13,12.78s-9.53-17.71-15.47-14.14c-6.18,3.72,3.44,11.46,8.22,15.16,10.19,7.89,12.94,8.35,11.22,5.51Zm-5.92,9.63s-7.59-18.63-13.88-15.71c-6.54,3,2.21,11.76,6.56,15.95,9.3,8.93,12,9.68,10.58,6.67Zm31.91-46.67s13.8-24.45,3.61-28.32c-10.61-4-11.49,12.77-11.75,21-.53,17.56,1.46,21,3.5,16.86Z"/><path class="cls-6" d="M182.73,311s-4.69,33.74-10.87,46.49c-7.1,14.64-17.82,30.23-27.66,40.41"/><line class="cls-6" x1="175.26" y1="348.46" x2="195.75" y2="333.62"/><line class="cls-6" x1="171.86" y1="357.46" x2="194.74" y2="351.1"/><line class="cls-6" x1="173.08" y1="354.17" x2="161.04" y2="334.31"/><line class="cls-6" x1="165.96" y1="368.73" x2="186.23" y2="368.21"/><line class="cls-6" x1="168.38" y1="363.95" x2="156.83" y2="351.23"/><line class="cls-6" x1="161.46" y1="374.84" x2="152.14" y2="365.52"/><line class="cls-6" x1="157.45" y1="382.23" x2="169.15" y2="381.03"/><line class="cls-6" x1="155.24" y1="384.98" x2="145.34" y2="373.15"/></g><path class="cls-7" d="M234.47,191.7s-12.8-4.08-22.59,6-4.63,30.21-4.63,37.28-9,52-9,52-4.36,16.33,7.62,26.68,34.12,9.45,43.57-10.47-.57-48.32-.57-63,2.18-24.49-1.09-35.1A20.61,20.61,0,0,0,234.47,191.7Z"/><path class="cls-8" d="M230.67,199.33S218.33,214.67,210,219"/><path class="cls-8" d="M220,198s-6.33,15.33-12,19.67"/><path class="cls-9" d="M255.51,250.73a10.22,10.22,0,0,1,4.28,7.2c.73,5.1-4.71,16.89-5.8,22.72A209.13,209.13,0,0,0,252,302c0,1.82,6.2,28.78,7.29,35.34s-.55,22-1.46,23.13-3.46-4.19-3.64-7.65-6.92-30.06-9.47-38.07-1.83-18.58-1.83-18.58,3.47-24.23,3.47-33.52.28-16.24.28-16.24Z"/><path class="cls-10" d="M257.81,360.43c.91-1.09,2.55-16.58,1.46-23.13S252,303.78,252,302a208.37,208.37,0,0,1,2-21.31,46.11,46.11,0,0,1,1.54-5.52,15.7,15.7,0,0,1-6.87,1.56c-1.27,0-2.51,1.17-3.7,3.16-1,8.46-2.09,16.28-2.09,16.28s-.72,10.56,1.83,18.58,9.29,34.61,9.47,38.07S256.9,361.52,257.81,360.43Z"/><path class="cls-11" d="M221.24,398.68c.4-4.48,1.24-13.6,1.78-17.12.73-4.73,2.18-14.39,2.18-14.39l3.69,31.51h25.28c.91-6.87,3.2-25.29,3.64-38.25.55-16.21-11.66-49.73-12-52.28s.36-10,.36-12.2,6.36-16.16,6.9-23.27,2.19-9.29,2.19-9.29l.91-12c-.55-.18-8.72-6.61-16.92-9A30.51,30.51,0,0,0,224,242s-11.84,5.28-17.85,7.83-10.95,7.47-11.1,13.84,11.65,33.52,12.75,35.53-2.37,9.1-3.83,12.75-7.47,16.76-11.47,31.33c-3.43,12.44-1.14,45.87-.39,55.37Z"/><path class="cls-12" d="M226.92,294.2s9.34,1.12,18.69-7.85"/><path class="cls-10" d="M233.4,268.08c2.73-.73,6.2-12,6.56-17.85.2-3.27.4-5.71.31-7.51l-1-.33A30.51,30.51,0,0,0,224,242l-4.82,2.14a15.15,15.15,0,0,0,.81,7.69C221.93,257.33,230.67,268.81,233.4,268.08Z"/><path class="cls-10" d="M221.2,236.44s.92,10.73,1.47,13.36,6.08,13,9.21,12.43S237,248.11,237,246.79s.37-12,.37-12S230.78,240.2,221.2,236.44Z"/><path class="cls-9" d="M203.16,251.68s-7.46.37-11.65,8.75.72,14,2.36,17.3,6.2,16.76,7.65,20.77,4.38,8.74,9.48,15.3,15.84,20.58,15.84,20.58l2.92,5.1s4.92,5.65,5.46,5.83,3.83,4.37,5.1,1.82,0-11.65,0-11.65,2,4,2.74,3.09-.19-2.91-.91-5.1-7.46-6.37-8.93-6.56-3.28-2-5.46-6.37-3.83-12-7.29-16.58-8-11.29-8-11.29-5.1-18.22-5.1-18.95a20.26,20.26,0,0,0-1.45-10"/><path class="cls-10" d="M233.22,326.91c-1.46-.18-3.28-2-5.46-6.37s-3.83-12-7.29-16.58-8-11.29-8-11.29-3.45-12.34-4.67-17.11c-6.7-.94-11.12.41-13.93,2.13h0c1.64,3.28,6.2,16.76,7.65,20.77s4.38,8.74,9.48,15.3,15.84,20.58,15.84,20.58l2.92,5.1s4.92,5.65,5.46,5.83,3.83,4.37,5.1,1.82,0-11.65,0-11.65,2,4,2.74,3.09-.19-2.91-.91-5.1S234.69,327.1,233.22,326.91Z"/><path class="cls-7" d="M221.24,398.68c.4-4.48,1.24-13.6,1.78-17.12.73-4.73,2.18-14.39,2.18-14.39l3.69,31.51h25.28c.91-6.87,3.2-25.29,3.64-38.25.23-6.75-1.76-16.51-4.18-25.78-21.37,4.68-45.6,1.29-58.18-1.15-1.06,3.13-2.1,6.42-3,9.81-3.43,12.44-1.14,45.87-.39,55.37Z"/><path class="cls-10" d="M214.87,220.46s-1.63-.73-1.63,2.54,3.63,5.44,3.63,5.44Z"/><path class="cls-10" d="M233.58,202.5s-5.82,8.2-10.93,11.48a83.24,83.24,0,0,1-8.19,4.73s2.55,10.57,3.64,14,4.36,9.49,10.92,9.85,9.48-6.57,10.76-9.85a14.13,14.13,0,0,0,1.15-5.36,7.64,7.64,0,0,0,3.46-5.28c.36-3.46-.55-3.28-.55-3.28s-1,1.13-3.17-.57C238.91,216.91,233,207.42,233.58,202.5Z"/><path class="cls-12" d="M219.69,223.21s2.57-1.88,6.33,0"/><path class="cls-12" d="M231.32,223.55s3.08-2.74,6.33-.51"/><path class="cls-12" d="M219.18,219.1s1.37-2.56,6-1.36"/><path class="cls-12" d="M231.32,217.91a5.29,5.29,0,0,1,7,.68"/><path class="cls-12" d="M230.81,229.19s-2.74,1.88-3.93,0"/><path class="cls-12" d="M225.85,233.13s3.42,1.36,5.13-.17"/><path class="cls-5" d="M168.05,331.43s8,17.76,9.91,21.34,4.13,13.77,4.4,19.82,0,7.3-1.37,7.16-1.93-7.71-1.93-8.95v-1.92s-.69,7.15-1.79,8.53-2.62,2.89-2.75,2.07.27-2.21.82-4.27a16.25,16.25,0,0,0,.28-4.82s-.83,3.85-2.75,5.23-4,1.93-3.31.83,2.48-2.34,2.89-3.72a17.81,17.81,0,0,0,.42-3.85s-2.62,4.26-3.72,4.95-1.1-.82-.41-1.51,2.2-5.37,2.2-5.37-.42-.28-2.34-4.54-3-11.71-3.58-14.6-1.65-6.74-1.65-6.74l-10.6-17.76s-.83-4.27,3.16-5S168.05,331.43,168.05,331.43Z"/><g class="cls-13"><path class="cls-14" d="M168.05,331.43s8,17.76,9.91,21.34,4.13,13.77,4.4,19.82,0,7.3-1.37,7.16-1.93-7.71-1.93-8.95v-1.92s-.69,7.15-1.79,8.53-2.62,2.89-2.75,2.07.27-2.21.82-4.27a16.25,16.25,0,0,0,.28-4.82s-.83,3.85-2.75,5.23-4,1.93-3.31.83,2.48-2.34,2.89-3.72a17.81,17.81,0,0,0,.42-3.85s-2.62,4.26-3.72,4.95-1.1-.82-.41-1.51,2.2-5.37,2.2-5.37-.42-.28-2.34-4.54-3-11.71-3.58-14.6-1.65-6.74-1.65-6.74l-10.6-17.76s-.83-4.27,3.16-5S168.05,331.43,168.05,331.43Z"/></g><path class="cls-12" d="M168.05,331.43s8,17.76,9.91,21.34,4.13,13.77,4.4,19.82,0,7.3-1.37,7.16-1.93-7.71-1.93-8.95v-1.92s-.69,7.15-1.79,8.53-2.62,2.89-2.75,2.07.27-2.21.82-4.27a16.25,16.25,0,0,0,.28-4.82s-.83,3.85-2.75,5.23-4,1.93-3.31.83,2.48-2.34,2.89-3.72a17.81,17.81,0,0,0,.42-3.85s-2.62,4.26-3.72,4.95-1.1-.82-.41-1.51,2.2-5.37,2.2-5.37-.42-.28-2.34-4.54-3-11.71-3.58-14.6-1.65-6.74-1.65-6.74l-10.6-17.76s-.83-4.27,3.16-5S168.05,331.43,168.05,331.43Z"/><path class="cls-5" d="M178,358s1.38,6.75,1.24,9.77.55,4.55-.42,4.55-1.23-.69-2.2-3.72a35.73,35.73,0,0,1-1.24-6.88s-3.44,0-4.68-5.1"/><g class="cls-15"><path class="cls-16" d="M178,358s1.38,6.75,1.24,9.77.55,4.55-.42,4.55-1.23-.69-2.2-3.72a35.73,35.73,0,0,1-1.24-6.88s-3.44,0-4.68-5.1"/></g><path class="cls-12" d="M178,358s1.38,6.75,1.24,9.77.55,4.55-.42,4.55-1.23-.69-2.2-3.72a35.73,35.73,0,0,1-1.24-6.88s-3.44,0-4.68-5.1"/><path class="cls-10" d="M116.55,398.68h50.68c.25-9.48,1.91-71.4,2.41-74.17.55-3,3.27-31.3,3.54-42.45s-4.63-27.22-4.63-28.31-.81-7.89-8.43-13.61-13.61-5.71-15.24-4.9c0,0-6,4.09-15.52,14.16s-12.79,18.23-12.79,33.74a163.25,163.25,0,0,0,2.45,28s-3,48.44-3,49.53S116.46,392.21,116.55,398.68Z"/><path class="cls-17" d="M139.55,289.18a28.82,28.82,0,0,0,3.22-.18c11.66-1.27,21.8-13.19,28.49-23.49-.31-1.49-.62-2.92-.93-4.23-6.31,10.29-16.51,23.5-27.88,24.74-15.83,1.72-23-10.75-25-14.78-.28,1.54-.49,3.16-.63,4.87C120.36,281.47,127.51,289.18,139.55,289.18Z"/><path class="cls-17" d="M135.75,265.12l2.9.77a62.65,62.65,0,0,1,17-28.58,25.1,25.1,0,0,0-3-1.33A64.92,64.92,0,0,0,135.75,265.12Z"/><path class="cls-17" d="M138.6,279.47c.68-.35,14.85-7.73,29.81-27a15.9,15.9,0,0,0-1.1-3.51c-15.06,20-29.91,27.74-30.07,27.82Z"/><path class="cls-17" d="M123.81,268.62l3-.45c0-.08-.87-7.17,6.11-22.39-1.12,1.11-2.29,2.31-3.53,3.62-.8.84-1.54,1.67-2.25,2.5C123.05,263,123.77,268.32,123.81,268.62Z"/><path class="cls-17" d="M148.55,313.07c-17.24,2.24-26-1.38-29.92-4.16.23,1.46.39,2.27.39,2.27s0,.53-.09,1.49c3.84,2.11,10,4.11,19.43,4.11a83.21,83.21,0,0,0,10.58-.73,56.43,56.43,0,0,0,22.41-7.92c.12-1.26.23-2.55.34-3.86A53.34,53.34,0,0,1,148.55,313.07Z"/><path class="cls-17" d="M147.66,331.53A75.55,75.55,0,0,0,170,321.79c.12-1.08.26-2.4.42-3.91a73.79,73.79,0,0,1-23.48,10.73c-11.61,2.85-22.88-.33-28.83-2.62-.06,1-.13,2.08-.19,3.16a56.46,56.46,0,0,0,19.28,3.61A44.45,44.45,0,0,0,147.66,331.53Z"/><path class="cls-17" d="M116.58,351.13c-.07,1.08-.13,2.1-.18,3A103.67,103.67,0,0,0,140,357a76.81,76.81,0,0,0,28.6-5.18c0-1.1.07-2.2.1-3.27C148.62,357,127.14,353.7,116.58,351.13Z"/><path class="cls-17" d="M149.85,341.23a61.52,61.52,0,0,1-32.61-1c-.06,1-.13,2.09-.19,3.12a60.3,60.3,0,0,0,18,2.63,69.23,69.23,0,0,0,15.51-1.78,76.67,76.67,0,0,0,18.52-6.9c0-1.24.09-2.42.13-3.52A73.92,73.92,0,0,1,149.85,341.23Z"/><path class="cls-17" d="M141.45,299c-12.3.62-20.25-3.92-24.66-7.66.07,1.38.16,2.72.26,4a37.24,37.24,0,0,0,22.13,6.72c.79,0,1.6,0,2.42-.06,12.07-.61,22.75-5.89,31.38-15.25.1-1.75.17-3.35.2-4.68v-.2C166.13,290.62,155.9,298.26,141.45,299Z"/><path class="cls-18" d="M161.88,241.6a21.65,21.65,0,0,0-1.76-1.46c-7.62-5.71-13.61-5.71-15.24-4.9a82.76,82.76,0,0,0-9,7.62,8.25,8.25,0,0,0,1.64,7.08c5.17,6.53,22,31.57,26.4,26.13s3.26-20.41-1.64-33.48C162.16,242.25,162,241.92,161.88,241.6Z"/><path class="cls-10" d="M146,270.35s14.7,31.3,17.69,36.2a39.36,39.36,0,0,0,4.63,6.53s13,4.37,24.15,8.46S223,331,227.07,332.13s10.88,1.09,12,1.09,14.15,3,15,3.54-.27,1.63-2.18,2.18-8.16,1.08-11.16,2.17-5.44.82-9.79-.27a44.51,44.51,0,0,1-9.8-4.35S185.43,334,177,333s-18-2.18-21.77-6.53a253.31,253.31,0,0,1-20.9-27.06c-5.12-7.74-14.49-18.61-10.94-28.46"/><path class="cls-5" d="M239,333.22c-1.09,0-7.89,0-12-1.09s-23.49-6.51-34.64-10.59-24.15-8.46-24.15-8.46a39.36,39.36,0,0,1-4.63-6.53c-1.23-2-4.45-8.53-7.82-15.48-10.85,2.84-16.31,8-19,12a260.42,260.42,0,0,0,18.39,23.36c3.81,4.35,13.33,5.44,21.77,6.53S221,336.5,221,336.5a44.51,44.51,0,0,0,9.8,4.35c4.35,1.09,6.8,1.36,9.79.27s9.26-1.63,11.16-2.17,3-1.64,2.18-2.18S240.13,333.22,239,333.22Z"/><g class="cls-19"><path class="cls-14" d="M239,333.22c-1.09,0-7.89,0-12-1.09s-23.49-6.51-34.64-10.59-24.15-8.46-24.15-8.46a39.36,39.36,0,0,1-4.63-6.53c-1.23-2-4.45-8.53-7.82-15.48-10.85,2.84-16.31,8-19,12a260.42,260.42,0,0,0,18.39,23.36c3.81,4.35,13.33,5.44,21.77,6.53S221,336.5,221,336.5a44.51,44.51,0,0,0,9.8,4.35c4.35,1.09,6.8,1.36,9.79.27s9.26-1.63,11.16-2.17,3-1.64,2.18-2.18S240.13,333.22,239,333.22Z"/></g><path class="cls-12" d="M239,333.22c-1.09,0-7.89,0-12-1.09s-23.49-6.51-34.64-10.59-24.15-8.46-24.15-8.46a39.36,39.36,0,0,1-4.63-6.53c-1.23-2-4.45-8.53-7.82-15.48-10.85,2.84-16.31,8-19,12a260.42,260.42,0,0,0,18.39,23.36c3.81,4.35,13.33,5.44,21.77,6.53S221,336.5,221,336.5a44.51,44.51,0,0,0,9.8,4.35c4.35,1.09,6.8,1.36,9.79.27s9.26-1.63,11.16-2.17,3-1.64,2.18-2.18S240.13,333.22,239,333.22Z"/><path class="cls-18" d="M167.23,398.68c.12-4.72.6-22.55,1.11-39.56a85.24,85.24,0,0,1-22.47,5.4c-16,1.87-25.22-2-29.78-5,0,.67-.06,1.09-.06,1.18,0,1,.43,31.5.52,38Z"/><path class="cls-12" d="M154.48,396.41C152,387,158,375,149.34,368.77"/><line class="cls-12" x1="154.48" y1="374.76" x2="165.62" y2="364.06"/><path class="cls-12" d="M126.55,374.83l-.29,21.58"/><line class="cls-12" x1="126.65" y1="367.06" x2="126.6" y2="371"/><path class="cls-5" d="M171.3,191.36a20.61,20.61,0,0,1,11.12,7.42,19,19,0,0,1,3.73,8.26c1.33,8.1-3.23,10.6-1.76,14.28s2.94,5.59,1.76,7.36-4.85,2.06-5.44,2.21-1.77,6.91-4.12,9.86-10.6-.44-10.6-.44-3.38,5.74-4.41,7.65,1,13.39-.45,18.54-4.85-.44-11.33-8.53-9.42-14.72-9.12-16.93,5.44-7.36,6.33-9.27,1.32-2.8.88-4.56-5.59-9-5.59-18.25,7.35-18.1,17.07-18.84A35.85,35.85,0,0,1,171.3,191.36Z"/><g class="cls-20"><path class="cls-14" d="M171.3,191.36a20.61,20.61,0,0,1,11.12,7.42,19,19,0,0,1,3.73,8.26c1.33,8.1-3.23,10.6-1.76,14.28s2.94,5.59,1.76,7.36-4.85,2.06-5.44,2.21-1.77,6.91-4.12,9.86-10.6-.44-10.6-.44-3.38,5.74-4.41,7.65,1,13.39-.45,18.54-4.85-.44-11.33-8.53-9.42-14.72-9.12-16.93,5.44-7.36,6.33-9.27,1.32-2.8.88-4.56-5.59-9-5.59-18.25,7.35-18.1,17.07-18.84A35.85,35.85,0,0,1,171.3,191.36Z"/></g><path class="cls-12" d="M171.3,191.36a20.61,20.61,0,0,1,11.12,7.42,19,19,0,0,1,3.73,8.26c1.33,8.1-3.23,10.6-1.76,14.28s2.94,5.59,1.76,7.36-4.85,2.06-5.44,2.21-1.77,6.91-4.12,9.86-10.6-.44-10.6-.44-3.38,5.74-4.41,7.65,1,13.39-.45,18.54-4.85-.44-11.33-8.53-9.42-14.72-9.12-16.93,5.44-7.36,6.33-9.27,1.32-2.8.88-4.56-5.59-9-5.59-18.25,7.35-18.1,17.07-18.84A35.85,35.85,0,0,1,171.3,191.36Z"/><path class="cls-7" d="M173.06,198.07c3.54-1.74,6.05-1.69,7.69-1.2a21,21,0,0,0-9.45-5.51,35.85,35.85,0,0,0-11.93-1.24c-9.72.74-17.07,9.57-17.07,18.84s5.15,16.48,5.59,18.25A4.32,4.32,0,0,1,148,229c7,1.39,9.29-2.11,9.29-2.11a6,6,0,0,1-4.56-1.32c-2.07-1.77-2.07-8.54.44-11.63s5,1.18,5,3.68,1.18,4.56,2.36,4.27.88-3.09,1.32-4.86,5.59-4.41,6.77-5.88-.59-2.8-2.5-5S165.84,201.6,173.06,198.07Z"/><path class="cls-12" d="M157,227.35s0,4.13,2.51,6.77"/><path class="cls-12" d="M179.92,219.9a8,8,0,0,0-3.95-.59"/><path class="cls-12" d="M182.09,216.35s-2.17-3.75-6.32-.79"/><path class="cls-12" d="M177,232.93a4,4,0,0,1-4.15-2.76"/><path class="cls-17" d="M148.45,275.63l-1.88-4c-12.09.21-19.17,4.72-23.17,9a28.31,28.31,0,0,0,1.62,4.15C128.17,280.69,134.92,275.34,148.45,275.63Z"/><path class="cls-17" d="M152.64,284.42l-1.88-3.94c-11.23.6-18.78,4.74-23.41,8.54.7,1.16,1.45,2.3,2.2,3.41C133.82,288.83,141.25,284.63,152.64,284.42Z"/><path class="cls-10" d="M282.81,311.14c1.26,3.77,2.1,17.18,2.1,24.31,0,5.94-3.8,49.14-5.06,63.23h56.82c.68-13.75,2.71-55.07,2.71-60.3,0-6.29-2.1-32.06.63-41.07s5.86-32.68,1-40-23-11.52-28.49-13.41-13.62-2.93-17.6-1c0,0-10.89,6.08-17.6,12.36s-9.63,15.93-8.38,23.68S281.55,307.37,282.81,311.14Z"/><path class="cls-17" d="M332.18,250.71a78.32,78.32,0,0,0-7.51-3,165.28,165.28,0,0,1-42.53,61.82c.31.69.54,1.25.67,1.63a42.13,42.13,0,0,1,1.22,7.48A171.24,171.24,0,0,0,332.18,250.71Z"/><path class="cls-17" d="M343.26,278a64.34,64.34,0,0,0-.28-15c-11.67,19.71-31.85,49.77-58.09,73.3-.07,2.07-.33,6.11-.72,11.23C309.71,326.39,329.91,299.06,343.26,278Z"/><path class="cls-7" d="M336.67,398.68c.48-9.79,1.65-33.54,2.28-48.31-27.65,5.29-47.09.26-54.81-2.45-1.18,15.57-3.39,40.65-4.29,50.76Z"/><ellipse class="cls-18" cx="302.08" cy="254.55" rx="13.74" ry="13.29"/><path class="cls-10" d="M289.52,237.81s2.3,8.17,2.3,13,5.24,15.93,13.83,10.9,4.19-16.55,2.72-20.12a59.79,59.79,0,0,1-2.51-8.38s-2.73,5-8,5.24A30.73,30.73,0,0,1,289.52,237.81Z"/><path class="cls-7" d="M275.35,208.15s-1.45,3.61.36,6.5L280,221.5l-.36-15.87S276.07,202.74,275.35,208.15Z"/><path class="cls-10" d="M280,217.89s-2.89,1.09-1.45,5.77,3.61,3.25,3.61,3.25Z"/><path class="cls-10" d="M277.36,209.74s2.52,13,4,19.48,9.43,12.36,13.62,13.62,9.64-3.35,10.9-6.07,1.88-8.8,1.88-8.8,4.61-1.89,5-6.71-.84-6.28-3.35-6.91l-1.89-.84s1.05-7.75-1.67-12.57-12.36,1.47-17.39,2.93S276.73,204.92,277.36,209.74Z"/><path class="cls-12" d="M289.52,219.17s-1,7.54.41,8.17,4.19-.84,4.82-1.05"/><path class="cls-12" d="M293.5,232s5.86.84,8.17-5.87"/><path class="cls-12" d="M282.39,217.49a4.65,4.65,0,0,1,4.4-2.09"/><path class="cls-12" d="M292.45,214.35s4.19-2.1,6.7.21"/><ellipse class="cls-17" cx="285.93" cy="220.86" rx="1.05" ry="2.1" transform="translate(-33.6 52.23) rotate(-9.86)"/><ellipse class="cls-17" cx="295.16" cy="218.98" rx="1.05" ry="2.1" transform="translate(-33.14 53.78) rotate(-9.86)"/><path class="cls-7" d="M301.25,204.08A82.79,82.79,0,0,1,283.86,210c-9.22,1.88-13.41-.21-13-4.82s12.36-14.67,23.25-14.67,14.67,5,15.3,10.27a91.06,91.06,0,0,1,0,13.62l-1.89,2.72S308,215,305,213.3,299.78,208.48,301.25,204.08Z"/><path class="cls-10" d="M340.82,288.73,311.74,310s-46.57,16.64-49.31,17.49-15.8,3.16-18.54,4.63-8,11.17-8.85,13.49a1.71,1.71,0,0,0,2.32,2.32c.63-.64,6.74-6.54,8.64-6.75s3.58-.42,3.58-.42-4.85,4.22-5.06,5.48.85.84,2.11.21,6.11-2.32,8-5.69,3.58-5.27,6.74-6.53,44.4-10.2,51.78-11.46,33.93-17.21,35.2-17.42S344.83,288.73,340.82,288.73Z"/><path class="cls-21" d="M335.14,315.93c.26.78-.52,11.75-1.05,30.82-.4,14.63-3.87,40.63-5.47,51.93h55.59c.4-11.46.9-37.67-2.32-48.54-4.18-14.1-8.88-17-10.44-23.24s-3.92-40.75-7.84-53.81-15.67-20.9-17.5-23.77-7.58-19.59-7.58-19.59l-9.92,8.36s7.31,11.75,8.36,15.41-7.06,12.27-11.23,21.16-5,15.93-1.31,21.41S334.88,315.14,335.14,315.93Z"/><g class="cls-22"><path class="cls-5" d="M343.64,369.6l9.11,2,9.11-2,9.11,2,9.11-2,4.22.92-.09-2.06-4.13-.91-9.11,2-9.11-2-9.11,2-9.11-2-9.1,2-2.19-.48c-.07.67-.14,1.33-.22,2l2.41.53Z"/><path class="cls-5" d="M353.7,301.16l-9.11,2-9.11-2-7.12,1.56,1,1.83,6.13-1.34,9.11,2,9.11-2,9.11,2,5.76-1.27c-.08-.66-.15-1.33-.23-2l-5.53,1.22Z"/><path class="cls-5" d="M343.64,384.83l9.11,2,9.11-2,9.11,2,9.11-2,4.41,1v-2l-4.42-1-9.11,2-9.11-2-9.11,2-9.11-2-9.1,2-3.94-.87c-.08.68-.17,1.34-.25,2l4.19.92Z"/><path class="cls-5" d="M384.41,391.36l-4.33-.95-9.11,2-9.11-2-9.11,2-9.11-2-9.1,2-4.91-1.08c-.09.68-.18,1.35-.26,2l5.17,1.13,9.1-2,9.11,2,9.11-2,9.11,2,9.11-2,4.29,1C384.38,392.74,384.4,392.06,384.41,391.36Z"/><path class="cls-5" d="M323.07,281.63l3.3.72,9.11-2,9.11,2,9.11-2,9.11,2,2.73-.6-.36-2-2.37.52-9.11-2-9.11,2-9.11-2-9.11,2-2.7-.59Q323.34,280.69,323.07,281.63Z"/><path class="cls-5" d="M353.7,285.92l-9.11,2-9.11-2-9.11,2-4.24-.93a17.53,17.53,0,0,0,0,2.05l4.24.93,9.11-2,9.11,2,9.11-2,9.11,2,3.9-.86c-.1-.67-.19-1.33-.29-2l-3.61.79Z"/><path class="cls-5" d="M353.7,293.54l-9.11,2-9.11-2-9.11,2-2.6-.57c.2.37.42.74.66,1.1s.53.81.81,1.27l1.13.25,9.11-2,9.11,2,9.11-2,9.11,2,4.88-1.07c-.08-.67-.17-1.33-.25-2l-4.63,1Z"/><path class="cls-5" d="M343.64,377.22l9.11,2,9.11-2,9.11,2,9.11-2,4.4,1v-2.05l-4.37-1-9.11,2-9.11-2-9.11,2-9.11-2-9.1,2-3-.67-.24,2,3.27.72Z"/></g><path class="cls-12" d="M335.14,315.93c.26.78-.52,11.75-1.05,30.82-.4,14.63-3.87,40.63-5.47,51.93h55.59c.4-11.46.9-37.67-2.32-48.54-4.18-14.1-8.88-17-10.44-23.24s-3.92-40.75-7.84-53.81-15.67-20.9-17.5-23.77-7.58-19.59-7.58-19.59l-9.92,8.36s7.31,11.75,8.36,15.41-7.06,12.27-11.23,21.16-5,15.93-1.31,21.41S334.88,315.14,335.14,315.93Z"/><path class="cls-12" d="M328.6,299.06s3.36,6.73,14.58,4.11"/><path class="cls-12" d="M359.25,342.42s-16.82,20.56-24.3,37"/><path class="cls-12" d="M341.31,359.25s-7.11,13.08-9,21.3"/><path class="cls-10" d="M331.81,272.63c5.43-3,12.36-16,15.38-18.4l2.06-1.65a23.05,23.05,0,0,1-3.14-3.26c-1.83-2.87-7.58-19.59-7.58-19.59l-9.92,8.36s7.31,11.75,8.36,15.41c.92,3.23-5.29,10.34-9.63,18.07C327.85,273,329.05,274.16,331.81,272.63Z"/><path class="cls-10" d="M319.85,209.62a21.57,21.57,0,0,0-1.7,8.68c.18,2.64.75,4.73-.31,7.34-.62,1.5-2.72,3.41-2.43,5.14.26,1.56,4.18,2.09,4.18,2.09s3.92,12.27,6,12.53,6.79-1,12.79-6-1.3-23-6.53-27.69S322.46,206.48,319.85,209.62Z"/><ellipse class="cls-17" cx="321.63" cy="224.07" rx="0.68" ry="1.92"/><path class="cls-12" d="M319.82,219.66s.68-2.72,3.4-.68"/><path class="cls-12" d="M321.18,235.5s1.81.46,3.85-2"/><path class="cls-23" d="M325.6,195.77s-9.67.27-11.24,6.53,5.49,11.76,10.45,14.37,9.4,6.79,9.4,11.23-5.6,10.19-5.61,16.13,19.6,6.23,26.15,6,1.41-15,5.06-26-1-21.94-8.36-26.64S325.6,195.77,325.6,195.77Z"/><path class="cls-8" d="M323.38,212c.92,1.27,2.66,2.62,5.93,3.38,7.15,1.69,9.87,5.78,9.87,9.3s.34,6,7.15,8.87a13.22,13.22,0,0,1,8,8.45"/><path class="cls-8" d="M321.33,205.33a9.14,9.14,0,0,0,.17,1.73"/><path class="cls-8" d="M340,205.33s5.24,2.31,5.13,5.45.21,6.09,3.45,7.85,6.6,2.86,7.75,6.37"/><path class="cls-10" d="M349.3,266s-4.43,1.68-6.74,10.32,7.16,23.81,8.64,30.56,2.95,17.06,2.95,17.06-33.09,27-37.93,31.19a99.31,99.31,0,0,0-7.38,6.95s-12,10.54-13.06,12.65-4,13.06-2.95,13.48,2.95-4.21,2.95-5,2.1-5.48,2.1-5.48S296.2,388.4,296.2,389s1.68,0,1.89-.85,2.53-9.69,2.53-9.69-1.26,9.9-.42,11,2.32-6.32,2.32-6.32l1.68-5.9s-.42,10.32.43,10.74,2.74-10.11,2.74-10.11,3.79-7.59,5.26-10.12a17,17,0,0,0,1.9-4.42s19.6-10.75,31.82-16.65,22.55-16.86,23.81-18.75-1.48-28.45-3.58-39.83S360.05,263,349.3,266Z"/><path class="cls-10" d="M280.84,252.42s-7.54,5.13-13.57,10-5.13,14.48-5.13,16.59-.3,11.76-.3,11.76l-4.53,9.65s-6.93,6.34-8.44,7.85S238.62,327,238.62,327l-2.11,3L248,331.44a99.18,99.18,0,0,1,14.17-13C269.68,313,276,298,276.31,296.15A106.66,106.66,0,0,0,279,280.77"/><path class="cls-10" d="M277,292.93c-5.07-8.32-12-7.24-15.08-6.2-.07,2.2-.12,4-.12,4l-4.53,9.65s-6.93,6.34-8.44,7.85-10.25,18.69-10.25,18.69l-2.11,3L248,331.44a99.18,99.18,0,0,1,14.17-13C269.68,313,276,298,276.31,296.15,276.42,295.54,276.7,294.42,277,292.93Z"/><path class="cls-10" d="M242.92,323s-7.49,6.12-9,8.06-2.69,13.35-2.09,14.18,4.79,3.06,6.59,1.11S246.81,335,246.81,335s-5,6.76-1.43,6.38S251,335.5,253.1,333s1.8-2.78,0-6.39L251.31,323"/><path class="cls-12" d="M231.84,345.23s3.81-13,5.33-14"/><path class="cls-12" d="M233.63,346.18s4.42-12.22,6.7-14.75"/><path class="cls-12" d="M236,347.05s4.79-12,7.93-14.91"/><path class="cls-10" d="M246.81,335s2.55-2.26,2.94-3.62"/><g id="freepik--Desk--inject-14"><line class="cls-12" x1="62.26" y1="398.68" x2="436.5" y2="398.68"/></g></svg>