<svg id="Camada_1" data-name="Camada 1" xmlns="http://www.w3.org/2000/svg" xmlns:xlink="http://www.w3.org/1999/xlink" viewBox="0 0 398.26 293.88"><defs><style>.cls-1,.cls-12,.cls-6,.cls-8{fill:none;}.cls-18,.cls-2{fill:#407bff;}.cls-10,.cls-3,.cls-4,.cls-5{fill:#fff;}.cls-14,.cls-16,.cls-3,.cls-4{isolation:isolate;}.cls-3{opacity:0.6;}.cls-4{opacity:0.4;}.cls-6{stroke:#ccc;stroke-width:1.25px;}.cls-10,.cls-12,.cls-18,.cls-23,.cls-6,.cls-7,.cls-8{stroke-linecap:round;stroke-linejoin:round;}.cls-17,.cls-7{fill:#263238;}.cls-10,.cls-12,.cls-18,.cls-7{stroke:#263238;}.cls-8{stroke:#fff;}.cls-9{fill:#52a08c;}.cls-11{fill:#53b252;}.cls-13{clip-path:url(#clip-path);}.cls-14{opacity:0.38;}.cls-15{clip-path:url(#clip-path-2);}.cls-16{opacity:0.15;}.cls-19{clip-path:url(#clip-path-3);}.cls-20{clip-path:url(#clip-path-4);}.cls-21{fill:#283c76;}.cls-22{clip-path:url(#clip-path-5);}.cls-23{fill:#d36e00;stroke:#a35202;}</style><clipPath id="clip-path"><path class="cls-1" d="M117.24,226.11s8,17.76,9.91,21.34,4.13,13.77,4.4,19.82,0,7.3-1.37,7.16-1.93-7.71-1.93-8.95v-1.92s-.69,7.15-1.79,8.53-2.62,2.89-2.75,2.07.27-2.21.82-4.27a15.92,15.92,0,0,0,.28-4.82s-.83,3.85-2.75,5.23-4,1.93-3.31.83,2.48-2.34,2.89-3.72a17.81,17.81,0,0,0,.42-3.85s-2.62,4.26-3.72,4.95-1.1-.82-.41-1.51,2.2-5.37,2.2-5.37-.42-.28-2.34-4.54-3-11.71-3.58-14.6-1.65-6.74-1.65-6.74L102,218s-.83-4.27,3.16-5S117.24,226.11,117.24,226.11Z"/></clipPath><clipPath id="clip-path-2"><path class="cls-1" d="M127.19,252.68s1.38,6.75,1.24,9.77S129,267,128,267s-1.23-.69-2.2-3.72a36.51,36.51,0,0,1-1.24-6.88s-3.44,0-4.68-5.1"/></clipPath><clipPath id="clip-path-3"><path class="cls-1" d="M188.19,227.9c-1.09,0-7.89,0-12-1.09s-23.49-6.51-34.64-10.59-24.15-8.46-24.15-8.46a39.36,39.36,0,0,1-4.63-6.53c-1.23-2-4.45-8.53-7.82-15.48-10.85,2.84-16.31,8-19,12a260.42,260.42,0,0,0,18.39,23.36c3.81,4.35,13.33,5.44,21.77,6.53s44.08,3.54,44.08,3.54a44.51,44.51,0,0,0,9.8,4.35c4.35,1.09,6.8,1.36,9.79.27s9.26-1.63,11.16-2.17,3-1.64,2.18-2.18S189.32,227.9,188.19,227.9Z"/></clipPath><clipPath id="clip-path-4"><path class="cls-1" d="M120.49,86a20.61,20.61,0,0,1,11.12,7.42,19,19,0,0,1,3.73,8.26c1.33,8.1-3.23,10.6-1.76,14.28s2.94,5.59,1.76,7.36-4.85,2.06-5.44,2.21-1.77,6.91-4.12,9.86-10.6-.44-10.6-.44-3.38,5.74-4.41,7.65,1,13.39-.45,18.54-4.85-.44-11.33-8.53-9.42-14.72-9.12-16.93,5.44-7.36,6.33-9.27,1.32-2.8.88-4.56-5.59-9-5.59-18.25,7.35-18.1,17.07-18.84A35.85,35.85,0,0,1,120.49,86Z"/></clipPath><clipPath id="clip-path-5"><path class="cls-1" d="M284.33,210.61c.26.78-.52,11.75-1.05,30.82-.4,14.63-3.87,40.63-5.47,51.93H333.4c.4-11.46.9-37.67-2.32-48.54-4.18-14.1-8.88-17-10.44-23.24s-3.92-40.75-7.84-53.81-15.67-20.9-17.5-23.77-7.58-19.59-7.58-19.59l-9.92,8.36s7.31,11.75,8.36,15.41-7.06,12.27-11.23,21.16-5,15.93-1.31,21.41S284.07,209.82,284.33,210.61Z"/></clipPath></defs><g id="freepik--background-simple--inject-14"><path class="cls-2" d="M383.94,293.17H23.26S8.92,297.85,1,260.61s32.8-47.22,42.48-79.38-32.55-25.39-29-69.4S76.07,67,104.22,72.9s24.63-14.39,57.18-48.25,81.79-30.46,106.41-4.23,16.72,53.32,47.51,53.32,58.94,5.93,77.41,62.63S377.44,219,378.05,244.55A276.13,276.13,0,0,0,383.94,293.17Z"/><path class="cls-3" d="M383.94,293.17H23.26S8.92,297.85,1,260.61s32.8-47.22,42.48-79.38-32.55-25.39-29-69.4S76.07,67,104.22,72.9s24.63-14.39,57.18-48.25,81.79-30.46,106.41-4.23,16.72,53.32,47.51,53.32,58.94,5.93,77.41,62.63S377.44,219,378.05,244.55A276.13,276.13,0,0,0,383.94,293.17Z"/></g><g id="freepik--Pictures--inject-14"><rect class="cls-2" x="158.52" y="19.38" width="68" height="98"/><rect class="cls-4" x="158.52" y="19.38" width="68" height="98"/><rect class="cls-5" x="168.24" y="33.38" width="48.57" height="70"/><rect class="cls-2" x="57.19" y="78.05" width="47.18" height="68"/><rect class="cls-4" x="57.19" y="78.05" width="47.18" height="68"/><rect class="cls-5" x="63.93" y="87.76" width="33.7" height="48.57"/><rect class="cls-2" x="286.19" y="78.05" width="47.18" height="68"/><rect class="cls-4" x="286.19" y="78.05" width="47.18" height="68"/><rect class="cls-5" x="292.93" y="87.76" width="33.7" height="48.57"/></g><g id="freepik--Plants--inject-14"><path class="cls-5" d="M280.82,214.09c-2,5-4.12,1-3.79-20.06.16-9.86.85-30,11.76-25.57,10.47,4.26-3.33,34-3.33,34Zm15,3S318.55,193.4,310,186c-8.87-7.74-16.07,11.09-19.42,20.37-7.14,19.79-6.48,24.28-2.93,20.19Zm4.79,21.26s20.81-14.82,15.37-21.74c-5.66-7.2-13.89,6.16-17.8,12.76-8.33,14.1-8.47,17.63-5.17,15Zm5.63,21.2s20.82-14.82,15.38-21.74c-5.67-7.2-13.9,6.15-17.8,12.76-8.33,14.09-8.48,17.63-5.17,15ZM269.9,216.93S240.77,201.77,236,212c-4.93,10.69,15.16,12.31,25,12.91,21,1.3,25.13-.6,20.21-2.86Zm4.1,16.68s-31.56-9.06-34.16,1.95c-2.7,11.45,17.31,9,27.08,7.68,20.84-2.9,24.5-5.58,19.23-6.82Zm7.22,18.2s-26.89-6.94-28.84,2.43c-2,9.75,14.85,7.25,23.08,5.87,17.55-2.94,20.59-5.29,16.11-6.21Zm4.21,15s-26-9.76-28.93-.65c-3.05,9.49,14,8.79,22.32,8.29,17.77-1.06,21-3.07,16.67-4.47ZM268,190.68s-11.87-36.9-25.35-30.19c-14,7,2.18,23.61,10.29,31.58,17.29,17,22.64,18.18,20.37,12.25Z"/><path class="cls-6" d="M248.29,173.68s29.82,36.38,37,54.59c8.2,20.93,13.78,44.5,14.89,64"/><line class="cls-6" x1="279.3" y1="216.38" x2="283.45" y2="181.69"/><line class="cls-6" x1="285.24" y1="228.26" x2="300.24" y2="199.1"/><line class="cls-6" x1="283.05" y1="223.94" x2="251.63" y2="217.54"/><line class="cls-6" x1="291.14" y1="244.81" x2="309.61" y2="223.77"/><line class="cls-6" x1="288.56" y1="237.88" x2="264.85" y2="237.67"/><line class="cls-6" x1="293.13" y1="255.1" x2="274.94" y2="255.81"/><line class="cls-6" x1="296.86" y1="266.08" x2="306.6" y2="253.1"/><line class="cls-6" x1="297.58" y1="270.91" x2="276.3" y2="269.85"/><path class="cls-5" d="M356.84,242.82c-3.67,1.38-2.55-1.71,8.8-11.87,5.32-4.77,16.38-14.3,19.38-6.32,2.89,7.67-19.74,15-19.74,15Zm5.77,9.43s23.78.45,23.54-7.74c-.25-8.52-13.8-3.1-20.38-.32-14,5.93-16.11,8.49-12.19,8.37Zm-8.95,13s18.11,3.79,19.12-2.51c1-6.55-10.11-4.36-15.54-3.19-11.59,2.49-13.54,4.15-10.53,4.63Zm-8.47,13.43s18.12,3.79,19.12-2.51c1.05-6.55-10.1-4.37-15.54-3.2-11.58,2.49-13.58,4.15-10.58,4.63ZM350,238.4s-6.26-23-14-20.42c-8.11,2.63.91,14.12,5.43,19.65,9.63,11.81,12.67,13.07,11.45,9.34Zm-6.81,10.38s-10.69-21.24-17.82-17.22c-7.43,4.2,3.69,13.66,9.21,18.18,11.79,9.66,15,10.29,13.09,6.88Zm-6.13,12.78s-9.53-17.71-15.47-14.14c-6.18,3.72,3.44,11.46,8.22,15.16,10.19,7.89,12.93,8.35,11.22,5.51Zm-5.92,9.63s-7.65-18.63-13.95-15.71c-6.54,3,2.2,11.76,6.56,16,9.3,8.93,12,9.68,10.58,6.67Zm31.91-46.67s13.79-24.45,3.6-28.32c-10.6-4-11.49,12.77-11.74,21-.54,17.56,1.46,21,3.5,16.86Z"/><path class="cls-6" d="M362.34,205.68s-4.69,33.74-10.87,46.49c-7.1,14.64-17.82,30.23-27.66,40.41"/><line class="cls-6" x1="354.87" y1="243.14" x2="375.36" y2="228.3"/><line class="cls-6" x1="351.47" y1="252.14" x2="374.35" y2="245.78"/><line class="cls-6" x1="352.69" y1="248.85" x2="340.65" y2="228.99"/><line class="cls-6" x1="345.57" y1="263.41" x2="365.84" y2="262.89"/><line class="cls-6" x1="347.99" y1="258.63" x2="336.44" y2="245.91"/><line class="cls-6" x1="341.07" y1="269.52" x2="331.75" y2="260.2"/><line class="cls-6" x1="337.06" y1="276.91" x2="348.76" y2="275.71"/><line class="cls-6" x1="334.84" y1="279.66" x2="324.95" y2="267.83"/><path class="cls-5" d="M50.4,214.09c-2,5-4.12,1-3.79-20.06.16-9.86.85-30,11.76-25.57,10.48,4.26-3.33,34-3.33,34Zm15,3S88.13,193.4,79.61,186c-8.88-7.74-16.08,11.09-19.43,20.37-7.14,19.79-6.48,24.28-2.93,20.19Zm4.79,21.24S91,223.51,85.56,216.59c-5.66-7.2-13.89,6.16-17.8,12.76-8.33,14.1-8.47,17.63-5.16,15Zm5.64,21.2s20.79-14.85,15.36-21.74c-5.67-7.2-13.9,6.15-17.8,12.76-8.33,14.09-8.48,17.63-5.17,15ZM39.46,216.91S10.34,201.75,5.6,212c-4.93,10.69,15.16,12.31,25,12.91,21,1.3,25.12-.6,20.2-2.86Zm4.1,16.68S12,224.53,9.4,235.54c-2.7,11.45,17.31,9,27.08,7.68,20.84-2.9,24.51-5.58,19.24-6.82Zm7.22,18.2s-26.89-6.94-28.84,2.43c-2,9.75,14.85,7.25,23.08,5.87,17.55-2.94,20.59-5.29,16.11-6.21Zm4.21,15s-26-9.76-28.93-.65c-3,9.49,14,8.79,22.32,8.29,17.77-1.06,21-3.07,16.68-4.47ZM37.58,190.68s-11.87-36.86-25.39-30.15c-14,7,2.18,23.61,10.29,31.58,17.3,17,22.65,18.18,20.37,12.25Z"/><path class="cls-6" d="M17.87,173.68s29.82,36.38,37,54.59c8.2,20.93,13.78,44.5,14.89,64"/><line class="cls-6" x1="48.89" y1="216.38" x2="53.03" y2="181.69"/><line class="cls-6" x1="54.82" y1="228.26" x2="69.82" y2="199.1"/><line class="cls-6" x1="52.63" y1="223.94" x2="21.22" y2="217.54"/><line class="cls-6" x1="60.72" y1="244.81" x2="79.19" y2="223.77"/><line class="cls-6" x1="58.14" y1="237.88" x2="34.43" y2="237.67"/><line class="cls-6" x1="62.71" y1="255.1" x2="44.52" y2="255.81"/><line class="cls-6" x1="66.45" y1="266.08" x2="76.19" y2="253.1"/><line class="cls-6" x1="67.16" y1="270.91" x2="45.88" y2="269.85"/><path class="cls-5" d="M126.42,242.82c-3.67,1.38-2.55-1.71,8.8-11.87,5.33-4.77,16.38-14.3,19.38-6.32,2.89,7.67-19.74,15-19.74,15Zm5.77,9.43s23.78.45,23.54-7.74c-.25-8.52-13.8-3.1-20.38-.32-14,5.93-16.11,8.49-12.19,8.37Zm-9,13s18.11,3.79,19.12-2.51c1-6.55-10.11-4.36-15.54-3.19-11.63,2.49-13.54,4.13-10.53,4.63Zm-8.51,13.43s18.12,3.79,19.12-2.51c1.05-6.55-10.1-4.37-15.53-3.2-11.6,2.5-13.55,4.16-10.53,4.64Zm4.81-40.28s-6.25-23-14-20.42c-8.11,2.63.9,14.12,5.42,19.65,9.63,11.81,12.67,13.07,11.45,9.34Zm-6.86,10.38S102,227.54,94.86,231.56c-7.43,4.2,3.69,13.66,9.22,18.18,11.79,9.66,15,10.29,13.08,6.88Zm-6.13,12.78S97,243.85,91.08,247.42c-6.18,3.72,3.44,11.46,8.22,15.16,10.19,7.89,12.94,8.35,11.22,5.51Zm-5.92,9.63S93,252.56,86.75,255.48c-6.54,3,2.21,11.76,6.56,16,9.3,8.93,12,9.68,10.58,6.67Zm31.91-46.67s13.8-24.45,3.61-28.32c-10.61-4-11.49,12.77-11.75,21-.53,17.56,1.46,21,3.5,16.86Z"/><path class="cls-6" d="M131.92,205.68s-4.69,33.74-10.87,46.49c-7.1,14.64-17.82,30.23-27.66,40.41"/><line class="cls-6" x1="124.45" y1="243.14" x2="144.94" y2="228.3"/><line class="cls-6" x1="121.05" y1="252.14" x2="143.93" y2="245.78"/><line class="cls-6" x1="122.27" y1="248.85" x2="110.23" y2="228.99"/><line class="cls-6" x1="115.15" y1="263.41" x2="135.42" y2="262.89"/><line class="cls-6" x1="117.57" y1="258.63" x2="106.02" y2="245.91"/><line class="cls-6" x1="110.65" y1="269.52" x2="101.33" y2="260.2"/><line class="cls-6" x1="106.64" y1="276.91" x2="118.34" y2="275.71"/><line class="cls-6" x1="104.43" y1="279.66" x2="94.53" y2="267.83"/></g><path class="cls-7" d="M183.66,86.38s-12.8-4.08-22.59,6-4.63,30.21-4.63,37.28-9,52-9,52-4.36,16.33,7.62,26.68,34.12,9.45,43.57-10.47-.57-48.32-.57-63,2.18-24.49-1.09-35.1A20.61,20.61,0,0,0,183.66,86.38Z"/><path class="cls-8" d="M179.86,94s-12.34,15.34-20.67,19.67"/><path class="cls-8" d="M169.19,92.68s-6.33,15.33-12,19.67"/><path class="cls-9" d="M204.7,145.41a10.22,10.22,0,0,1,4.28,7.2c.73,5.1-4.71,16.89-5.8,22.72a212,212,0,0,0-2,21.35c0,1.82,6.2,28.78,7.29,35.34s-.55,22-1.46,23.13-3.46-4.19-3.64-7.65-6.92-30.06-9.47-38.07-1.83-18.58-1.83-18.58,3.47-24.23,3.47-33.52.28-16.24.28-16.24Z"/><path class="cls-10" d="M207,255.11c.91-1.09,2.55-16.58,1.46-23.13s-7.27-33.52-7.27-35.3a208.37,208.37,0,0,1,2-21.31,48.05,48.05,0,0,1,1.54-5.52,15.7,15.7,0,0,1-6.87,1.56c-1.27,0-2.51,1.17-3.7,3.16-1,8.46-2.09,16.28-2.09,16.28s-.72,10.56,1.83,18.58,9.29,34.61,9.47,38.07S206.09,256.2,207,255.11Z"/><path class="cls-11" d="M170.43,293.36c.4-4.48,1.24-13.6,1.78-17.12.73-4.73,2.18-14.39,2.18-14.39l3.69,31.51h25.28c.91-6.87,3.2-25.29,3.64-38.25.55-16.21-11.66-49.73-12-52.28s.36-10,.36-12.2,6.36-16.16,6.9-23.27,2.19-9.29,2.19-9.29l.91-12c-.55-.18-8.72-6.61-16.92-9a30.54,30.54,0,0,0-15.25-.39s-11.84,5.28-17.85,7.83-11,7.47-11.1,13.84,11.65,33.52,12.75,35.53-2.37,9.1-3.83,12.75-7.47,16.76-11.47,31.33c-3.43,12.44-1.14,45.87-.39,55.37Z"/><path class="cls-12" d="M176.11,188.88S185.45,190,194.8,181"/><path class="cls-10" d="M182.59,162.76c2.73-.73,6.2-12,6.56-17.85.2-3.27.4-5.71.31-7.51l-1-.33a30.5,30.5,0,0,0-15.27-.39l-4.82,2.14a15.15,15.15,0,0,0,.81,7.69C171.12,152,179.86,163.49,182.59,162.76Z"/><path class="cls-10" d="M170.39,131.12s.92,10.73,1.47,13.36,6.08,13,9.21,12.43,5.12-14.12,5.12-15.44.37-12,.37-12S180,134.88,170.39,131.12Z"/><path class="cls-9" d="M152.35,146.36s-7.46.37-11.65,8.75.72,14,2.36,17.3,6.2,16.76,7.65,20.77,4.38,8.74,9.48,15.3S176,229.06,176,229.06l2.92,5.1s4.92,5.65,5.46,5.83,3.83,4.37,5.1,1.82,0-11.65,0-11.65,2,4,2.74,3.09-.19-2.91-.91-5.1-7.46-6.37-8.93-6.56-3.28-2-5.46-6.37-3.83-12-7.29-16.58-8-11.29-8-11.29-5.1-18.22-5.1-18.95a20.26,20.26,0,0,0-1.45-10"/><path class="cls-10" d="M182.41,221.59c-1.46-.18-3.28-2-5.46-6.37s-3.83-12-7.29-16.58-8-11.29-8-11.29S158.21,175,157,170.24c-6.7-.94-11.12.41-13.93,2.13h0c1.64,3.28,6.2,16.76,7.65,20.77s4.38,8.74,9.48,15.3S176,229,176,229l2.92,5.1s4.92,5.65,5.46,5.83,3.83,4.37,5.1,1.82,0-11.65,0-11.65,2,4,2.74,3.09-.19-2.91-.91-5.1S183.88,221.78,182.41,221.59Z"/><path class="cls-7" d="M170.43,293.36c.4-4.48,1.24-13.6,1.78-17.12.73-4.73,2.18-14.39,2.18-14.39l3.69,31.51h25.28c.91-6.87,3.2-25.29,3.64-38.25.23-6.75-1.76-16.51-4.18-25.78-21.37,4.68-45.6,1.29-58.18-1.15-1.06,3.13-2.1,6.42-3,9.81-3.43,12.44-1.14,45.87-.39,55.37Z"/><path class="cls-10" d="M164.06,115.14s-1.63-.73-1.63,2.54,3.63,5.44,3.63,5.44Z"/><path class="cls-10" d="M182.77,97.18s-5.82,8.2-10.93,11.48a83.24,83.24,0,0,1-8.19,4.73s2.55,10.57,3.64,14,4.36,9.49,10.92,9.85,9.48-6.57,10.76-9.85a14.13,14.13,0,0,0,1.15-5.36,7.64,7.64,0,0,0,3.46-5.28c.36-3.46-.55-3.28-.55-3.28s-1,1.13-3.17-.57C188.1,111.59,182.19,102.1,182.77,97.18Z"/><path class="cls-12" d="M168.88,117.89s2.57-1.88,6.33,0"/><path class="cls-12" d="M180.51,118.23s3.08-2.74,6.33-.51"/><path class="cls-12" d="M168.37,113.78s1.37-2.56,6-1.36"/><path class="cls-12" d="M180.51,112.59a5.29,5.29,0,0,1,7,.68"/><path class="cls-12" d="M180,123.87s-2.74,1.88-3.93,0"/><path class="cls-12" d="M175,127.81s3.42,1.36,5.13-.17"/><path class="cls-5" d="M117.24,226.11s8,17.76,9.91,21.34,4.13,13.77,4.4,19.82,0,7.3-1.37,7.16-1.93-7.71-1.93-8.95v-1.92s-.69,7.15-1.79,8.53-2.62,2.89-2.75,2.07.27-2.21.82-4.27a15.92,15.92,0,0,0,.28-4.82s-.83,3.85-2.75,5.23-4,1.93-3.31.83,2.48-2.34,2.89-3.72a17.81,17.81,0,0,0,.42-3.85s-2.62,4.26-3.72,4.95-1.1-.82-.41-1.51,2.2-5.37,2.2-5.37-.42-.28-2.34-4.54-3-11.71-3.58-14.6-1.65-6.74-1.65-6.74L102,218s-.83-4.27,3.16-5S117.24,226.11,117.24,226.11Z"/><g class="cls-13"><path class="cls-14" d="M117.24,226.11s8,17.76,9.91,21.34,4.13,13.77,4.4,19.82,0,7.3-1.37,7.16-1.93-7.71-1.93-8.95v-1.92s-.69,7.15-1.79,8.53-2.62,2.89-2.75,2.07.27-2.21.82-4.27a15.92,15.92,0,0,0,.28-4.82s-.83,3.85-2.75,5.23-4,1.93-3.31.83,2.48-2.34,2.89-3.72a17.81,17.81,0,0,0,.42-3.85s-2.62,4.26-3.72,4.95-1.1-.82-.41-1.51,2.2-5.37,2.2-5.37-.42-.28-2.34-4.54-3-11.71-3.58-14.6-1.65-6.74-1.65-6.74L102,218s-.83-4.27,3.16-5S117.24,226.11,117.24,226.11Z"/></g><path class="cls-12" d="M117.24,226.11s8,17.76,9.91,21.34,4.13,13.77,4.4,19.82,0,7.3-1.37,7.16-1.93-7.71-1.93-8.95v-1.92s-.69,7.15-1.79,8.53-2.62,2.89-2.75,2.07.27-2.21.82-4.27a15.92,15.92,0,0,0,.28-4.82s-.83,3.85-2.75,5.23-4,1.93-3.31.83,2.48-2.34,2.89-3.72a17.81,17.81,0,0,0,.42-3.85s-2.62,4.26-3.72,4.95-1.1-.82-.41-1.51,2.2-5.37,2.2-5.37-.42-.28-2.34-4.54-3-11.71-3.58-14.6-1.65-6.74-1.65-6.74L102,218s-.83-4.27,3.16-5S117.24,226.11,117.24,226.11Z"/><path class="cls-5" d="M127.19,252.68s1.38,6.75,1.24,9.77S129,267,128,267s-1.23-.69-2.2-3.72a36.51,36.51,0,0,1-1.24-6.88s-3.44,0-4.68-5.1"/><g class="cls-15"><path class="cls-16" d="M127.19,252.68s1.38,6.75,1.24,9.77S129,267,128,267s-1.23-.69-2.2-3.72a36.51,36.51,0,0,1-1.24-6.88s-3.44,0-4.68-5.1"/></g><path class="cls-12" d="M127.19,252.68s1.38,6.75,1.24,9.77S129,267,128,267s-1.23-.69-2.2-3.72a36.51,36.51,0,0,1-1.24-6.88s-3.44,0-4.68-5.1"/><path class="cls-10" d="M65.74,293.36h50.68c.25-9.48,1.91-71.4,2.41-74.17.55-3,3.27-31.3,3.54-42.45s-4.63-27.22-4.63-28.31-.81-7.89-8.43-13.61-13.61-5.71-15.24-4.9c0,0-6,4.09-15.52,14.16s-12.79,18.23-12.79,33.74a163.25,163.25,0,0,0,2.45,28s-3,48.44-3,49.53S65.65,286.89,65.74,293.36Z"/><path class="cls-17" d="M88.74,183.86a28.82,28.82,0,0,0,3.22-.18c11.66-1.27,21.8-13.19,28.49-23.49-.31-1.49-.62-2.92-.93-4.23-6.31,10.29-16.51,23.5-27.88,24.74-15.83,1.72-23-10.75-25-14.78-.28,1.54-.49,3.16-.63,4.87C69.55,176.15,76.7,183.86,88.74,183.86Z"/><path class="cls-17" d="M84.94,159.8l2.9.77a62.74,62.74,0,0,1,17-28.58,25.1,25.1,0,0,0-3-1.33A64.92,64.92,0,0,0,84.94,159.8Z"/><path class="cls-17" d="M87.79,174.15c.68-.35,14.85-7.73,29.81-27a15.9,15.9,0,0,0-1.1-3.51c-15.06,20-29.91,27.74-30.07,27.82Z"/><path class="cls-17" d="M73,163.3l3-.45c0-.08-.87-7.17,6.11-22.39-1.12,1.11-2.29,2.31-3.53,3.62-.8.84-1.54,1.67-2.25,2.5C72.24,157.68,73,163,73,163.3Z"/><path class="cls-17" d="M97.74,207.75c-17.24,2.24-26-1.38-29.92-4.16.23,1.46.39,2.27.39,2.27s0,.53-.09,1.49c3.84,2.11,10,4.11,19.43,4.11a83.08,83.08,0,0,0,10.58-.73,56.43,56.43,0,0,0,22.41-7.92c.12-1.26.23-2.55.34-3.86A53.29,53.29,0,0,1,97.74,207.75Z"/><path class="cls-17" d="M96.85,226.21a75.69,75.69,0,0,0,22.34-9.74c.12-1.08.26-2.4.42-3.91a73.69,73.69,0,0,1-23.48,10.73c-11.61,2.85-22.88-.33-28.83-2.62-.06,1-.13,2.08-.19,3.16a56.46,56.46,0,0,0,19.28,3.61A44.32,44.32,0,0,0,96.85,226.21Z"/><path class="cls-17" d="M65.77,245.81c-.07,1.08-.13,2.1-.18,3a103.67,103.67,0,0,0,23.6,2.87,76.78,76.78,0,0,0,28.6-5.18c0-1.1.07-2.2.1-3.27C97.81,251.68,76.33,248.38,65.77,245.81Z"/><path class="cls-17" d="M99,235.91a61.52,61.52,0,0,1-32.61-1c-.06,1-.13,2.09-.19,3.12a60.34,60.34,0,0,0,18,2.63,69.17,69.17,0,0,0,15.51-1.78,76.51,76.51,0,0,0,18.52-6.9c0-1.24.09-2.42.13-3.52A73.92,73.92,0,0,1,99,235.91Z"/><path class="cls-17" d="M90.64,193.68c-12.3.62-20.25-3.92-24.66-7.66.07,1.38.16,2.72.26,4a37.24,37.24,0,0,0,22.13,6.72c.79,0,1.6,0,2.42-.06,12.07-.61,22.75-5.89,31.38-15.25.1-1.75.17-3.35.2-4.68v-.2C115.32,185.3,105.09,192.94,90.64,193.68Z"/><path class="cls-18" d="M111.07,136.28a22.33,22.33,0,0,0-1.76-1.46c-7.62-5.71-13.61-5.71-15.24-4.9a83.73,83.73,0,0,0-9,7.62,8.25,8.25,0,0,0,1.64,7.08c5.17,6.53,22,31.57,26.4,26.13s3.26-20.41-1.64-33.48C111.35,136.93,111.19,136.6,111.07,136.28Z"/><path class="cls-10" d="M95.19,165s14.7,31.3,17.69,36.2a39.36,39.36,0,0,0,4.63,6.53s13,4.37,24.15,8.46,30.53,9.46,34.6,10.59,10.88,1.09,12,1.09,14.15,3,15,3.54-.27,1.63-2.18,2.18-8.16,1.08-11.16,2.17-5.44.82-9.79-.27a44.51,44.51,0,0,1-9.8-4.35s-35.71-2.49-44.14-3.49-18-2.18-21.77-6.53a253.31,253.31,0,0,1-20.9-27.06C78.4,186.35,69,175.48,72.58,165.63"/><path class="cls-5" d="M188.19,227.9c-1.09,0-7.89,0-12-1.09s-23.49-6.51-34.64-10.59-24.15-8.46-24.15-8.46a39.36,39.36,0,0,1-4.63-6.53c-1.23-2-4.45-8.53-7.82-15.48-10.85,2.84-16.31,8-19,12a260.42,260.42,0,0,0,18.39,23.36c3.81,4.35,13.33,5.44,21.77,6.53s44.08,3.54,44.08,3.54a44.51,44.51,0,0,0,9.8,4.35c4.35,1.09,6.8,1.36,9.79.27s9.26-1.63,11.16-2.17,3-1.64,2.18-2.18S189.32,227.9,188.19,227.9Z"/><g class="cls-19"><path class="cls-14" d="M188.19,227.9c-1.09,0-7.89,0-12-1.09s-23.49-6.51-34.64-10.59-24.15-8.46-24.15-8.46a39.36,39.36,0,0,1-4.63-6.53c-1.23-2-4.45-8.53-7.82-15.48-10.85,2.84-16.31,8-19,12a260.42,260.42,0,0,0,18.39,23.36c3.81,4.35,13.33,5.44,21.77,6.53s44.08,3.54,44.08,3.54a44.51,44.51,0,0,0,9.8,4.35c4.35,1.09,6.8,1.36,9.79.27s9.26-1.63,11.16-2.17,3-1.64,2.18-2.18S189.32,227.9,188.19,227.9Z"/></g><path class="cls-12" d="M188.19,227.9c-1.09,0-7.89,0-12-1.09s-23.49-6.51-34.64-10.59-24.15-8.46-24.15-8.46a39.36,39.36,0,0,1-4.63-6.53c-1.23-2-4.45-8.53-7.82-15.48-10.85,2.84-16.31,8-19,12a260.42,260.42,0,0,0,18.39,23.36c3.81,4.35,13.33,5.44,21.77,6.53s44.08,3.54,44.08,3.54a44.51,44.51,0,0,0,9.8,4.35c4.35,1.09,6.8,1.36,9.79.27s9.26-1.63,11.16-2.17,3-1.64,2.18-2.18S189.32,227.9,188.19,227.9Z"/><path class="cls-18" d="M116.42,293.36c.12-4.72.6-22.55,1.11-39.56a85.24,85.24,0,0,1-22.47,5.4c-16,1.87-25.22-2-29.78-5,0,.67-.06,1.09-.06,1.18,0,1,.43,31.5.52,38Z"/><path class="cls-12" d="M103.67,291.09c-2.48-9.41,3.52-21.41-5.14-27.64"/><line class="cls-12" x1="103.67" y1="269.44" x2="114.81" y2="258.74"/><path class="cls-12" d="M75.74,269.51l-.29,21.58"/><line class="cls-12" x1="75.84" y1="261.74" x2="75.79" y2="265.68"/><path class="cls-5" d="M120.49,86a20.61,20.61,0,0,1,11.12,7.42,19,19,0,0,1,3.73,8.26c1.33,8.1-3.23,10.6-1.76,14.28s2.94,5.59,1.76,7.36-4.85,2.06-5.44,2.21-1.77,6.91-4.12,9.86-10.6-.44-10.6-.44-3.38,5.74-4.41,7.65,1,13.39-.45,18.54-4.85-.44-11.33-8.53-9.42-14.72-9.12-16.93,5.44-7.36,6.33-9.27,1.32-2.8.88-4.56-5.59-9-5.59-18.25,7.35-18.1,17.07-18.84A35.85,35.85,0,0,1,120.49,86Z"/><g class="cls-20"><path class="cls-14" d="M120.49,86a20.61,20.61,0,0,1,11.12,7.42,19,19,0,0,1,3.73,8.26c1.33,8.1-3.23,10.6-1.76,14.28s2.94,5.59,1.76,7.36-4.85,2.06-5.44,2.21-1.77,6.91-4.12,9.86-10.6-.44-10.6-.44-3.38,5.74-4.41,7.65,1,13.39-.45,18.54-4.85-.44-11.33-8.53-9.42-14.72-9.12-16.93,5.44-7.36,6.33-9.27,1.32-2.8.88-4.56-5.59-9-5.59-18.25,7.35-18.1,17.07-18.84A35.85,35.85,0,0,1,120.49,86Z"/></g><path class="cls-12" d="M120.49,86a20.61,20.61,0,0,1,11.12,7.42,19,19,0,0,1,3.73,8.26c1.33,8.1-3.23,10.6-1.76,14.28s2.94,5.59,1.76,7.36-4.85,2.06-5.44,2.21-1.77,6.91-4.12,9.86-10.6-.44-10.6-.44-3.38,5.74-4.41,7.65,1,13.39-.45,18.54-4.85-.44-11.33-8.53-9.42-14.72-9.12-16.93,5.44-7.36,6.33-9.27,1.32-2.8.88-4.56-5.59-9-5.59-18.25,7.35-18.1,17.07-18.84A35.85,35.85,0,0,1,120.49,86Z"/><path class="cls-7" d="M122.25,92.75c3.54-1.74,6.05-1.69,7.69-1.2A21,21,0,0,0,120.49,86a35.85,35.85,0,0,0-11.93-1.24c-9.72.74-17.07,9.57-17.07,18.84s5.15,16.48,5.59,18.25a4.32,4.32,0,0,1,.11,1.79c7,1.39,9.29-2.11,9.29-2.11a6,6,0,0,1-4.56-1.32c-2.07-1.77-2.07-8.54.44-11.63s5,1.18,5,3.68,1.18,4.56,2.36,4.27.88-3.09,1.32-4.86,5.59-4.41,6.77-5.88-.59-2.8-2.5-5S115,96.28,122.25,92.75Z"/><path class="cls-12" d="M106.19,122s0,4.13,2.51,6.77"/><path class="cls-12" d="M129.11,114.58a8,8,0,0,0-4-.59"/><path class="cls-12" d="M131.28,111s-2.17-3.75-6.32-.79"/><path class="cls-12" d="M126.19,127.61a4,4,0,0,1-4.15-2.76"/><path class="cls-17" d="M97.64,170.31l-1.88-4c-12.09.21-19.17,4.72-23.17,9a28.31,28.31,0,0,0,1.62,4.15C77.36,175.37,84.11,170,97.64,170.31Z"/><path class="cls-17" d="M101.83,179.1,100,175.16c-11.23.6-18.78,4.74-23.41,8.54.7,1.16,1.45,2.3,2.2,3.41C83,183.51,90.44,179.31,101.83,179.1Z"/><path class="cls-10" d="M232,205.82c1.26,3.77,2.1,17.18,2.1,24.31,0,5.94-3.8,49.14-5.06,63.23h56.82c.68-13.75,2.71-55.07,2.71-60.3,0-6.29-2.1-32.06.63-41.07s5.86-32.68,1-40-23-11.52-28.49-13.41-13.62-2.93-17.6-1c0,0-10.89,6.08-17.6,12.36s-9.63,15.93-8.38,23.68S230.74,202.05,232,205.82Z"/><path class="cls-17" d="M281.37,145.39a77.29,77.29,0,0,0-7.51-3,165.28,165.28,0,0,1-42.53,61.82c.31.69.54,1.25.67,1.63a42,42,0,0,1,1.22,7.48A171.14,171.14,0,0,0,281.37,145.39Z"/><path class="cls-17" d="M292.45,172.68a64.34,64.34,0,0,0-.28-15c-11.67,19.71-31.85,49.77-58.09,73.3-.07,2.07-.33,6.11-.72,11.23C258.9,221.07,279.1,193.74,292.45,172.68Z"/><path class="cls-7" d="M285.86,293.36c.48-9.79,1.65-33.54,2.28-48.31-27.65,5.29-47.09.26-54.81-2.45-1.18,15.57-3.39,40.65-4.29,50.76Z"/><ellipse class="cls-18" cx="251.27" cy="149.23" rx="13.74" ry="13.29"/><path class="cls-10" d="M238.71,132.49s2.3,8.17,2.3,13,5.24,15.93,13.83,10.9,4.19-16.55,2.72-20.12a59.79,59.79,0,0,1-2.51-8.38s-2.73,5-8,5.24A30.76,30.76,0,0,1,238.71,132.49Z"/><path class="cls-7" d="M224.54,102.83s-1.45,3.61.36,6.5l4.29,6.85-.36-15.87S225.26,97.42,224.54,102.83Z"/><path class="cls-10" d="M229.19,112.57s-2.89,1.09-1.45,5.77,3.61,3.25,3.61,3.25Z"/><path class="cls-10" d="M226.55,104.42s2.52,13,4,19.48,9.43,12.36,13.62,13.62,9.64-3.35,10.9-6.07,1.88-8.8,1.88-8.8,4.61-1.89,5-6.71-.84-6.28-3.35-6.91l-1.89-.84s1.05-7.75-1.67-12.57-12.36,1.47-17.39,2.93S225.92,99.6,226.55,104.42Z"/><path class="cls-12" d="M238.71,113.85s-1,7.54.41,8.17,4.19-.84,4.82-1"/><path class="cls-12" d="M242.69,126.68s5.86.84,8.17-5.87"/><path class="cls-12" d="M231.58,112.17a4.66,4.66,0,0,1,4.4-2.09"/><path class="cls-12" d="M241.64,109s4.19-2.1,6.7.21"/><ellipse class="cls-17" cx="235.12" cy="115.54" rx="1.05" ry="2.1" transform="translate(-16.31 41.97) rotate(-9.86)"/><ellipse class="cls-17" cx="244.35" cy="113.66" rx="1.05" ry="2.1" transform="translate(-15.85 43.52) rotate(-9.86)"/><path class="cls-7" d="M250.44,98.76a82.79,82.79,0,0,1-17.39,5.92c-9.22,1.88-13.41-.21-13-4.82s12.36-14.67,23.25-14.67,14.67,5,15.3,10.27a91.06,91.06,0,0,1,0,13.62l-1.89,2.72s.48-2.12-2.52-3.82S249,103.16,250.44,98.76Z"/><path class="cls-10" d="M290,183.41l-29.08,21.27s-46.57,16.64-49.31,17.49-15.8,3.16-18.54,4.63-8,11.17-8.85,13.49a1.71,1.71,0,0,0,.69,2.32,1.69,1.69,0,0,0,1.63,0c.63-.64,6.74-6.54,8.64-6.75s3.58-.42,3.58-.42-4.85,4.22-5.06,5.48.85.84,2.11.21,6.11-2.32,8-5.69,3.58-5.27,6.74-6.53,44.4-10.2,51.78-11.46,33.93-17.21,35.2-17.42S294,183.41,290,183.41Z"/><path class="cls-21" d="M284.33,210.61c.26.78-.52,11.75-1.05,30.82-.4,14.63-3.87,40.63-5.47,51.93H333.4c.4-11.46.9-37.67-2.32-48.54-4.18-14.1-8.88-17-10.44-23.24s-3.92-40.75-7.84-53.81-15.67-20.9-17.5-23.77-7.58-19.59-7.58-19.59l-9.92,8.36s7.31,11.75,8.36,15.41-7.06,12.27-11.23,21.16-5,15.93-1.31,21.41S284.07,209.82,284.33,210.61Z"/><g class="cls-22"><path class="cls-5" d="M292.83,264.28l9.11,2,9.11-2,9.11,2,9.11-2,4.22.92-.09-2.06-4.13-.91-9.11,2-9.11-2-9.11,2-9.11-2-9.1,2-2.19-.48c-.07.67-.14,1.33-.22,2l2.41.53Z"/><path class="cls-5" d="M302.89,195.84l-9.11,2-9.11-2-7.12,1.56,1,1.83,6.13-1.34,9.11,2,9.11-2,9.11,2,5.76-1.27c-.08-.66-.15-1.33-.23-2L312,197.84Z"/><path class="cls-5" d="M292.83,279.51l9.11,2,9.11-2,9.11,2,9.11-2,4.41,1v-2l-4.42-1-9.11,2-9.11-2-9.11,2-9.11-2-9.1,2-3.94-.87c-.08.68-.17,1.34-.25,2l4.19.92Z"/><path class="cls-5" d="M333.6,286l-4.33-1-9.11,2-9.11-2-9.11,2-9.11-2-9.1,2L278.82,286c-.09.68-.18,1.35-.26,2l5.17,1.13,9.1-2,9.11,2,9.11-2,9.11,2,9.11-2,4.29,1C333.57,287.42,333.59,286.74,333.6,286Z"/><path class="cls-5" d="M272.26,176.31l3.3.72,9.11-2,9.11,2,9.11-2,9.11,2,2.73-.6-.36-2L312,175l-9.11-2-9.11,2-9.11-2-9.11,2-2.7-.59Q272.53,175.37,272.26,176.31Z"/><path class="cls-5" d="M302.89,180.6l-9.11,2-9.11-2-9.11,2-4.24-.93a17.53,17.53,0,0,0,0,2.05l4.24.93,9.11-2,9.11,2,9.11-2,9.11,2,3.9-.86c-.1-.67-.19-1.33-.29-2l-3.61.79Z"/><path class="cls-5" d="M302.89,188.22l-9.11,2-9.11-2-9.11,2-2.6-.57c.2.37.42.74.66,1.1s.53.81.81,1.27l1.13.25,9.11-2,9.11,2,9.11-2,9.11,2,4.88-1.07c-.08-.67-.17-1.33-.25-2l-4.63,1Z"/><path class="cls-5" d="M292.83,271.9l9.11,2,9.11-2,9.11,2,9.11-2,4.4,1v-2l-4.37-1-9.11,2-9.11-2-9.11,2-9.11-2-9.1,2-3-.67-.24,2,3.27.72Z"/></g><path class="cls-12" d="M284.33,210.61c.26.78-.52,11.75-1.05,30.82-.4,14.63-3.87,40.63-5.47,51.93H333.4c.4-11.46.9-37.67-2.32-48.54-4.18-14.1-8.88-17-10.44-23.24s-3.92-40.75-7.84-53.81-15.67-20.9-17.5-23.77-7.58-19.59-7.58-19.59l-9.92,8.36s7.31,11.75,8.36,15.41-7.06,12.27-11.23,21.16-5,15.93-1.31,21.41S284.07,209.82,284.33,210.61Z"/><path class="cls-12" d="M277.79,193.74s3.36,6.73,14.58,4.11"/><path class="cls-12" d="M308.44,237.1s-16.82,20.56-24.3,37"/><path class="cls-12" d="M290.5,253.93s-7.11,13.08-9,21.3"/><path class="cls-10" d="M281,167.31c5.43-3,12.36-16,15.38-18.4l2.06-1.65A23.05,23.05,0,0,1,295.3,144c-1.83-2.87-7.58-19.59-7.58-19.59l-9.92,8.36s7.31,11.75,8.36,15.41c.92,3.23-5.29,10.34-9.63,18.07C277,167.68,278.24,168.84,281,167.31Z"/><path class="cls-10" d="M269,104.3a21.54,21.54,0,0,0-1.7,8.68c.18,2.64.75,4.73-.31,7.34-.62,1.5-2.72,3.41-2.43,5.14.26,1.56,4.18,2.09,4.18,2.09s3.92,12.27,6,12.53,6.79-1,12.79-6-1.3-23-6.53-27.69S271.65,101.16,269,104.3Z"/><ellipse class="cls-17" cx="270.82" cy="118.75" rx="0.68" ry="1.92"/><path class="cls-12" d="M269,114.34s.68-2.72,3.4-.68"/><path class="cls-12" d="M270.37,130.18s1.81.46,3.85-2"/><path class="cls-23" d="M274.79,90.45s-9.67.27-11.24,6.53S269,108.74,274,111.35s9.4,6.79,9.4,11.23-5.6,10.19-5.61,16.13,19.6,6.23,26.15,6,1.41-15,5.06-26-1-21.94-8.36-26.64S274.79,90.45,274.79,90.45Z"/><path class="cls-8" d="M272.57,106.68c.92,1.27,2.66,2.62,5.93,3.38,7.15,1.69,9.87,5.78,9.87,9.3s.34,6,7.15,8.87a13.21,13.21,0,0,1,8,8.45"/><path class="cls-8" d="M270.52,100a9.14,9.14,0,0,0,.17,1.73"/><path class="cls-8" d="M289.19,100s5.24,2.31,5.13,5.45.21,6.09,3.45,7.85,6.6,2.86,7.75,6.37"/><path class="cls-10" d="M298.49,160.68s-4.43,1.68-6.74,10.32,7.16,23.81,8.64,30.56,2.95,17.06,2.95,17.06-33.09,27-37.93,31.19a100.91,100.91,0,0,0-7.38,6.95S246,267.3,245,269.41s-4,13.06-2.95,13.48,2.95-4.21,2.95-5,2.1-5.48,2.1-5.48-1.68,10.67-1.68,11.27,1.68,0,1.89-.85,2.53-9.69,2.53-9.69-1.26,9.9-.42,11,2.32-6.32,2.32-6.32l1.68-5.9s-.42,10.32.43,10.74,2.74-10.11,2.74-10.11,3.79-7.59,5.26-10.12a17,17,0,0,0,1.9-4.42s19.6-10.75,31.82-16.65,22.55-16.86,23.81-18.75-1.48-28.45-3.58-39.83S309.24,157.68,298.49,160.68Z"/><path class="cls-10" d="M230,147.1s-7.54,5.13-13.57,10-5.13,14.48-5.13,16.59-.3,11.76-.3,11.76l-4.53,9.65s-6.93,6.34-8.44,7.85-10.25,18.73-10.25,18.73l-2.11,3,11.49,1.44a99.18,99.18,0,0,1,14.17-13c7.51-5.44,13.83-20.44,14.14-22.29a106.66,106.66,0,0,0,2.69-15.38"/><path class="cls-10" d="M226.19,187.61c-5.07-8.32-12-7.24-15.08-6.2-.07,2.2-.12,4-.12,4l-4.53,9.65s-6.93,6.34-8.44,7.85-10.25,18.69-10.25,18.69l-2.11,3,11.53,1.52a99.18,99.18,0,0,1,14.17-13c7.51-5.44,13.83-20.44,14.14-22.29C225.61,190.22,225.89,189.1,226.19,187.61Z"/><path class="cls-10" d="M192.11,217.68s-7.49,6.12-9,8.06-2.69,13.35-2.09,14.18,4.79,3.06,6.59,1.11S196,229.68,196,229.68s-5,6.76-1.43,6.38,5.62-5.88,7.72-8.38,1.8-2.78,0-6.39l-1.79-3.61"/><path class="cls-12" d="M181,239.91s3.81-13,5.33-14"/><path class="cls-12" d="M182.82,240.86s4.42-12.22,6.7-14.75"/><path class="cls-12" d="M185.19,241.73s4.79-12,7.93-14.91"/><path class="cls-10" d="M196,229.68s2.55-2.26,2.94-3.62"/><g id="freepik--Desk--inject-14"><line class="cls-12" x1="11.45" y1="293.36" x2="385.69" y2="293.36"/></g></svg>